<svg width="528" height="338" viewBox="0 0 528 338" fill="none" xmlns="http://www.w3.org/2000/svg">
    <g id="Group">
        <path id="Vector" fill-rule="evenodd" clip-rule="evenodd" d="M271.693 337.095C350.396 337.095 414.59 329.682 414.59 320.591C414.59 311.5 350.396 304.088 271.693 304.088C192.99 304.088 128.796 311.5 128.796 320.591C128.796 329.66 192.99 337.095 271.693 337.095Z" fill="#4C6282" />
        <path id="Vector_2" fill-rule="evenodd" clip-rule="evenodd" d="M264.1 325.443C409.049 325.443 527.253 311.795 527.253 295.042C527.253 278.289 409.029 264.642 264.1 264.642C119.15 264.642 0.946533 278.289 0.946533 295.042C0.946533 311.795 119.15 325.443 264.1 325.443V325.443Z" fill="#4C6282" />
        <path id="Vector_3" fill-rule="evenodd" clip-rule="evenodd" d="M271.693 0.533813C389.996 0.533813 485.918 109.623 485.918 244.216C485.918 258.906 484.782 273.279 482.59 287.244H60.7957C58.6035 273.279 57.4675 258.883 57.4675 244.216C57.4675 109.645 153.39 0.533813 271.693 0.533813V0.533813Z" fill="#61799E" fill-opacity="0.16" />
        <path id="Vector_4" fill-rule="evenodd" clip-rule="evenodd" d="M264.1 311.773C388.262 311.773 489.526 300.075 489.526 285.724C489.526 271.375 388.262 259.677 264.1 259.677C139.937 259.677 38.6736 271.375 38.6736 285.724C38.6736 300.075 139.937 311.773 264.1 311.773Z" fill="#38475C" />
        <path id="Vector_5" d="M251.823 142.721H225.356V175.547H251.823V142.721Z" fill="#66768F" />
        <path id="Vector_6" fill-rule="evenodd" clip-rule="evenodd" d="M282.375 91.4187H201.819C198.79 91.4187 196.298 94.2298 196.298 97.6986V149.25C196.298 152.696 198.77 155.53 201.819 155.53H282.375C285.405 155.53 287.896 152.719 287.896 149.25V97.6986C287.896 94.2527 285.425 91.4187 282.375 91.4187Z" fill="#66768F" />
        <path id="Vector_7" fill-rule="evenodd" clip-rule="evenodd" d="M275.34 91.4187H194.784C191.754 91.4187 189.263 94.2298 189.263 97.6986V149.25C189.263 152.696 191.735 155.53 194.784 155.53H275.34C278.369 155.53 280.861 152.719 280.861 149.25V97.6986C280.861 94.2527 278.369 91.4187 275.34 91.4187Z" fill="#7C8CA6" />
        <path id="Vector_8" fill-rule="evenodd" clip-rule="evenodd" d="M268.963 96.4968H201.161C198.61 96.4968 196.518 98.8774 196.518 101.779V145.192C196.518 148.094 198.61 150.475 201.161 150.475H268.963C271.514 150.475 273.606 148.094 273.606 145.192V101.779C273.606 98.8774 271.514 96.4968 268.963 96.4968Z" fill="#3CD3C1" />
        <g id="Group_2">
            <path id="Vector_9" d="M238.589 115.472H201.62V138.686H238.589V115.472ZM238.589 109.532H201.62V112.956H238.589V109.532ZM238.589 104.023H201.62V107.446H238.589V104.023Z" fill="white" />
        </g>
        <path id="Vector_10" d="M141.472 142.721H115.005V175.547H141.472V142.721Z" fill="#66768F" />
        <path id="Vector_11" fill-rule="evenodd" clip-rule="evenodd" d="M84.4524 91.4187H165.009C168.038 91.4187 170.529 94.2298 170.529 97.6986V149.25C170.529 152.696 168.058 155.53 165.009 155.53H84.4524C81.4231 155.53 78.9319 152.719 78.9319 149.25V97.6986C78.9319 94.2527 81.4231 91.4187 84.4524 91.4187Z" fill="#66768F" />
        <path id="Vector_12" fill-rule="evenodd" clip-rule="evenodd" d="M91.5076 91.4187H172.064C175.093 91.4187 177.584 94.2298 177.584 97.6986V149.25C177.584 152.696 175.113 155.53 172.064 155.53H91.5076C88.4782 155.53 85.987 152.719 85.987 149.25V97.6986C85.987 94.2527 88.4583 91.4187 91.5076 91.4187Z" fill="#7C8CA6" />
        <path id="Vector_13" fill-rule="evenodd" clip-rule="evenodd" d="M97.8652 96.4968H165.666C168.217 96.4968 170.31 98.8774 170.31 101.779V145.192C170.31 148.094 168.217 150.475 165.666 150.475H97.8652C95.3141 150.475 93.2215 148.094 93.2215 145.192V101.779C93.2215 98.8774 95.3141 96.4968 97.8652 96.4968V96.4968Z" fill="#3CD3C1" />
        <g id="Group_3">
            <path id="Vector_14" d="M165.228 115.472H128.258V138.686H165.228V115.472ZM165.228 109.532H128.258V112.956H165.228V109.532ZM165.228 104.023H128.258V107.446H165.228V104.023Z" fill="white" />
        </g>
        <path id="Vector_15" d="M450.762 185.341H77.4172V285.724H450.762V185.341Z" fill="#2D3540" />
        <path id="Vector_16" fill-rule="evenodd" clip-rule="evenodd" d="M77.4172 185.341H154.904L144.84 285.747H67.3526L77.4172 185.341V185.341ZM373.295 185.341H450.782L460.847 285.747H383.36L373.295 185.341V185.341Z" fill="#38475C" />
        <path id="Vector_17" d="M456.044 175.57H72.1358V187.586H456.044V175.57V175.57Z" fill="#687A96" />
        <path id="Vector_18" d="M165.467 175.57H72.1358V187.586H165.467V175.57ZM456.044 175.57H362.712V187.586H456.044V175.57Z" fill="#7C8CA6" />
        <path id="Vector_19" d="M165.467 175.57H147.789V187.586H165.467V175.57ZM380.39 175.57H362.712V187.586H380.39V175.57Z" fill="#93A2BA" />
        <path id="Vector_20" d="M190.14 167.546H97.5064V175.547H190.14V167.546Z" fill="#66768F" />
        <g id="Group_4">
            <path id="Vector_21" fill-rule="evenodd" clip-rule="evenodd" d="M161.541 180.966C167.281 180.966 172.741 183.618 176.927 187.903C181.092 192.188 184.002 198.105 184.64 204.634C184.719 205.541 184.779 206.402 184.779 207.264C184.779 212.795 183.065 217.76 180.135 221.501C177.206 225.241 173.08 227.735 168.277 228.346C167.52 228.437 166.762 228.483 166.005 228.483C160.265 228.483 154.805 225.83 150.619 221.545C146.454 217.261 143.544 211.344 142.907 204.815C142.827 203.908 142.787 203.047 142.787 202.186C142.787 196.654 144.501 191.69 147.431 187.949C150.36 184.208 154.486 181.714 159.289 181.102C160.026 181.034 160.784 180.966 161.541 180.966V180.966ZM175.95 189.149C172.024 185.138 166.922 182.643 161.541 182.643C160.823 182.643 160.106 182.689 159.428 182.78C154.984 183.324 151.197 185.636 148.507 189.082C145.816 192.528 144.222 197.107 144.222 202.208C144.222 203.025 144.262 203.841 144.341 204.657C144.939 210.777 147.65 216.309 151.576 220.322C155.502 224.335 160.604 226.828 165.985 226.828C166.703 226.828 167.42 226.783 168.098 226.692C172.542 226.148 176.329 223.835 179.019 220.389C181.71 216.944 183.304 212.365 183.304 207.264C183.304 206.448 183.264 205.631 183.185 204.815C182.587 198.694 179.856 193.162 175.95 189.149Z" fill="white" />
            <path id="Vector_22" fill-rule="evenodd" clip-rule="evenodd" d="M144.8 195.384C148.925 195.384 152.632 199.193 153.091 203.886C153.549 208.578 150.56 212.387 146.454 212.387C142.329 212.387 138.622 208.578 138.163 203.886C137.705 199.17 140.674 195.384 144.8 195.384Z" fill="#3CD3C1" />
            <path id="Vector_23" fill-rule="evenodd" clip-rule="evenodd" d="M177.804 239.342C181.132 239.342 184.361 239.432 187.41 239.591L184.799 243.218C182.481 242.992 180.153 242.878 177.824 242.878C175.292 242.878 172.901 242.992 170.848 243.218L168.237 239.591C171.247 239.432 174.475 239.342 177.804 239.342V239.342ZM192.113 239.932C203.433 240.929 211.266 243.037 211.266 245.508C211.266 247.979 203.433 250.11 192.113 251.085L189.223 247.072C190.997 246.642 192.033 246.098 192.033 245.508C192.033 244.919 190.997 244.375 189.223 243.943L192.113 239.932ZM187.41 251.425C181.01 251.758 174.597 251.758 168.197 251.425L170.808 247.798C172.861 248.002 175.253 248.138 177.784 248.138C180.315 248.138 182.706 248.024 184.759 247.798L187.41 251.425ZM163.494 251.085C152.174 250.088 144.341 247.979 144.341 245.508C144.341 243.037 152.174 240.906 163.494 239.932L166.384 243.943C164.61 244.375 163.574 244.919 163.574 245.508C163.574 246.098 164.61 246.642 166.384 247.072L163.494 251.085Z" fill="white" />
        </g>
        <g id="Group_5">
            <path id="Vector_24" fill-rule="evenodd" clip-rule="evenodd" d="M261.489 110.529C266.252 103.638 275.041 102.437 281.1 107.855C287.158 113.273 288.215 123.27 283.451 130.162L257.882 167.137C253.118 174.029 244.329 175.23 238.271 169.813C232.212 164.394 231.156 154.397 235.919 147.505L261.489 110.529Z" fill="#918B9C" />
            <path id="Vector_25" fill-rule="evenodd" clip-rule="evenodd" d="M261.489 110.529C265.654 104.5 272.909 102.822 278.708 106.132C274.782 106.336 270.975 108.399 268.365 112.185L242.795 149.159C238.031 156.051 239.088 166.049 245.146 171.467C245.904 172.147 246.721 172.714 247.538 173.19C244.309 173.349 241.021 172.261 238.271 169.813C232.212 164.394 231.156 154.397 235.919 147.505L261.489 110.529V110.529Z" fill="#3CD3C1" />
            <path id="Vector_26" d="M250.906 179.265C262.959 179.265 272.729 168.151 272.729 154.442C272.729 140.732 262.959 129.618 250.906 129.618C238.854 129.618 229.083 140.732 229.083 154.442C229.083 168.151 238.854 179.265 250.906 179.265Z" fill="#918B9C" />
            <path id="Vector_27" fill-rule="evenodd" clip-rule="evenodd" d="M250.906 129.618C252.879 129.618 254.792 129.913 256.606 130.479C246.84 132.95 239.546 142.858 239.546 154.714C239.546 166.185 246.382 175.842 255.669 178.676C254.135 179.062 252.54 179.265 250.906 179.265C238.849 179.265 229.083 168.157 229.083 154.442C229.083 140.726 238.849 129.618 250.906 129.618V129.618Z" fill="#3CD3C1" />
            <path id="Vector_28" d="M328.014 179.47H291.085V294.045H328.014V179.47Z" fill="#38475C" />
            <path id="Vector_29" fill-rule="evenodd" clip-rule="evenodd" d="M291.085 179.47H328.015V248.523C328.015 260.085 319.704 269.538 309.54 269.538C299.375 269.538 291.065 260.085 291.065 248.523V179.47H291.085V179.47Z" fill="#38475C" />
            <path id="Vector_30" fill-rule="evenodd" clip-rule="evenodd" d="M205.107 166.298C197.474 165.028 192.193 156.958 193.309 148.275C194.425 139.593 201.52 133.585 209.153 134.855L248.913 141.611C256.546 142.88 261.828 150.951 260.712 159.633C259.596 168.316 252.5 174.324 244.867 173.054L205.107 166.298V166.298Z" fill="#D99A86" />
            <g id="Group_6">
                <path id="Vector_31" fill-rule="evenodd" clip-rule="evenodd" d="M213.797 127.51C218.779 125.991 223.941 129.391 225.276 135.036L230.339 156.527C231.674 162.195 228.684 168.067 223.722 169.585C218.739 171.104 213.578 167.704 212.242 162.059L207.18 140.568C205.825 134.901 208.814 129.028 213.797 127.51V127.51Z" fill="#918B9C" />
                <path id="Vector_32" fill-rule="evenodd" clip-rule="evenodd" d="M217.085 141.497C222.068 139.979 227.23 143.379 228.565 149.024L230.339 156.505C231.674 162.172 228.684 168.044 223.722 169.563C218.739 171.082 213.578 167.681 212.242 162.037L210.488 154.555C209.133 148.888 212.103 143.016 217.085 141.497ZM195.84 105.067L182.447 109.147L187.569 130.865L200.962 126.784C203.971 125.877 205.765 122.318 204.968 118.895L202.776 109.601C201.959 106.178 198.849 104.137 195.84 105.067Z" fill="#847D91" />
                <path id="Vector_33" fill-rule="evenodd" clip-rule="evenodd" d="M204.51 105.339C208.934 104 213.498 106.993 214.694 112.026L219.178 131.092C220.354 136.124 217.723 141.316 213.299 142.676C208.874 144.013 204.31 141.021 203.114 135.989L198.63 116.923C197.454 111.89 200.105 106.676 204.51 105.339Z" fill="#918B9C" />
                <path id="Vector_34" fill-rule="evenodd" clip-rule="evenodd" d="M221.211 97.3129L207.818 101.394L212.94 123.112L226.333 119.031C229.342 118.125 231.136 114.565 230.339 111.142L228.146 101.847C227.349 98.4469 224.22 96.4061 221.211 97.3129V97.3129Z" fill="#847D91" />
                <g id="Group_7">
                    <path id="Vector_35" fill-rule="evenodd" clip-rule="evenodd" d="M183.783 108.739L206.503 101.824C210.249 100.691 214.116 103.23 215.112 107.492C216.109 111.754 213.877 116.152 210.13 117.286L187.41 124.2C183.663 125.333 179.797 122.794 178.8 118.532C177.804 114.27 180.056 109.873 183.783 108.739Z" fill="#D2CAE2" />
                    <path id="Vector_36" fill-rule="evenodd" clip-rule="evenodd" d="M182.447 109.147C179.438 110.054 177.644 113.613 178.441 117.036L180.634 126.331C181.431 129.754 184.56 131.794 187.569 130.888C190.579 129.981 192.372 126.421 191.575 122.998L189.383 113.704C188.566 110.258 185.457 108.218 182.447 109.147ZM207.838 101.394C204.828 102.3 203.035 105.86 203.832 109.283L206.024 118.578C206.821 122.001 209.95 124.041 212.96 123.134C215.969 122.227 217.763 118.669 216.966 115.245L214.773 105.951C213.956 102.528 210.847 100.487 207.838 101.394Z" fill="#D2CAE2" />
                </g>
                <path id="Vector_37" fill-rule="evenodd" clip-rule="evenodd" d="M189.981 112.707L202.895 108.762C203.792 108.49 204.749 109.101 204.988 110.122C205.227 111.142 204.689 112.23 203.792 112.502L190.878 116.447C189.981 116.719 189.024 116.107 188.785 115.086C188.526 114.067 189.084 113.001 189.981 112.707Z" fill="#3CD3C1" />
                <path id="Vector_38" fill-rule="evenodd" clip-rule="evenodd" d="M193.767 111.55L199.089 109.918C199.985 109.646 200.942 110.258 201.181 111.278C201.42 112.298 200.882 113.386 199.985 113.658L194.664 115.291C193.767 115.563 192.811 114.951 192.572 113.93C192.332 112.91 192.871 111.845 193.767 111.55Z" fill="white" />
                <path id="Vector_39" fill-rule="evenodd" clip-rule="evenodd" d="M201.919 125.832L203.932 125.22C204.848 124.948 205.805 125.56 206.064 126.626L207.14 131.183C207.379 132.225 206.841 133.313 205.905 133.608L203.892 134.22C202.975 134.492 202.018 133.88 201.759 132.815L200.683 128.258C200.444 127.193 201.002 126.105 201.919 125.832Z" fill="#D2CAE2" />
            </g>
            <path id="Vector_40" fill-rule="evenodd" clip-rule="evenodd" d="M257.044 231.997C257.044 230.864 257.842 229.957 258.838 229.957C259.835 229.957 260.632 230.864 260.632 231.997C260.632 238.095 258.44 243.627 254.912 247.639C251.384 251.651 246.522 254.146 241.16 254.146C235.799 254.146 230.936 251.651 227.409 247.639C223.881 243.627 221.689 238.095 221.689 231.997V158.954C221.689 157.82 222.486 156.913 223.483 156.913C224.479 156.913 225.276 157.82 225.276 158.954V231.997C225.276 236.961 227.07 241.473 229.94 244.76C232.81 248.024 236.796 250.065 241.16 250.065C245.525 250.065 249.491 248.024 252.381 244.76C255.251 241.495 257.044 236.961 257.044 231.997Z" fill="#847D91" />
            <path id="Vector_41" d="M208.834 167.318C218.784 167.318 226.851 158.144 226.851 146.825C226.851 135.506 218.784 126.331 208.834 126.331C198.884 126.331 190.818 135.506 190.818 146.825C190.818 158.144 198.884 167.318 208.834 167.318Z" fill="#FBBEAC" />
            <path id="Vector_42" fill-rule="evenodd" clip-rule="evenodd" d="M208.834 126.331C210.03 126.331 211.206 126.467 212.342 126.716C204.808 129.165 199.288 137.077 199.288 146.439C199.288 156.392 205.526 164.689 213.817 166.548C212.242 167.069 210.568 167.341 208.834 167.341C198.869 167.341 190.818 158.16 190.818 146.847C190.818 135.512 198.889 126.331 208.834 126.331Z" fill="#3CD3C1" />
            <path id="Vector_43" fill-rule="evenodd" clip-rule="evenodd" d="M303.401 180.808H266.073L235.759 294.045H273.088L303.401 180.808V180.808Z" fill="#38475C" />
            <path id="Vector_44" fill-rule="evenodd" clip-rule="evenodd" d="M277.752 180.808H266.073L250.926 237.437L277.752 180.808Z" fill="#3CD3C1" />
            <path id="Vector_45" d="M295.35 222.045C312.531 222.045 326.46 206.2 326.46 186.656C326.46 167.112 312.531 151.268 295.35 151.268C278.168 151.268 264.239 167.112 264.239 186.656C264.239 206.2 278.168 222.045 295.35 222.045V222.045Z" fill="#38475C" />
            <path id="Vector_46" fill-rule="evenodd" clip-rule="evenodd" d="M306.789 102.188C324.049 107.447 334.392 127.805 329.768 147.437L321.378 183.029C316.754 202.661 298.857 214.427 281.598 209.168C264.339 203.908 253.995 183.55 258.619 163.918L267.009 128.326C271.613 108.671 289.53 96.9283 306.789 102.188V102.188Z" fill="white" />
            <path id="Vector_47" fill-rule="evenodd" clip-rule="evenodd" d="M305.693 128.326C301.687 120.845 303.76 111.074 310.337 106.518C316.914 101.961 325.503 104.318 329.509 111.8L349.559 149.07C353.565 156.55 351.492 166.321 344.915 170.878C338.338 175.435 329.748 173.077 325.743 165.595L305.693 128.326Z" fill="#E6E6E6" />
            <path id="Vector_48" d="M335.668 180.558C347.72 180.558 357.491 169.444 357.491 155.734C357.491 142.024 347.72 130.911 335.668 130.911C323.615 130.911 313.844 142.024 313.844 155.734C313.844 169.444 323.615 180.558 335.668 180.558Z" fill="#E6E6E6" />
            <path id="Vector_49" fill-rule="evenodd" clip-rule="evenodd" d="M347.904 120.845C353.066 114.361 361.875 113.863 367.575 119.734C373.275 125.605 373.714 135.626 368.552 142.109L347.984 167.953C342.822 174.437 334.013 174.936 328.313 169.064C322.614 163.193 322.175 153.172 327.337 146.689L347.904 120.845Z" fill="#D99A86" />
            <path id="Vector_50" fill-rule="evenodd" clip-rule="evenodd" d="M347.904 120.845C351.293 116.605 356.235 114.905 360.839 115.902C357.849 116.469 354.999 118.147 352.807 120.89L332.24 146.734C327.078 153.218 327.516 163.238 333.216 169.109C335.189 171.127 337.521 172.396 339.952 172.918C335.907 173.689 331.582 172.419 328.294 169.041C322.594 163.17 322.155 153.149 327.317 146.666L347.904 120.845V120.845Z" fill="#3CD3C1" />
            <g id="Group_8">
                <path id="Vector_51" fill-rule="evenodd" clip-rule="evenodd" d="M353.026 109.736C358.009 111.256 360.978 117.127 359.643 122.794L354.581 144.285C353.246 149.954 348.084 153.331 343.101 151.812C338.119 150.293 335.149 144.422 336.485 138.754L341.547 117.263C342.882 111.619 348.044 108.218 353.026 109.736Z" fill="#918B9C" />
                <path id="Vector_52" fill-rule="evenodd" clip-rule="evenodd" d="M349.738 123.724C354.72 125.243 357.69 131.115 356.355 136.782L354.601 144.264C353.266 149.931 348.104 153.309 343.121 151.79C338.139 150.27 335.169 144.399 336.505 138.732L338.278 131.25C339.594 125.605 344.756 122.205 349.738 123.724ZM347.346 80.0826L333.954 76.002L328.832 97.7205L342.224 101.801C345.234 102.708 348.343 100.667 349.16 97.2442L351.352 87.9499C352.15 84.5489 350.356 80.9894 347.346 80.0826Z" fill="#847D91" />
                <path id="Vector_53" fill-rule="evenodd" clip-rule="evenodd" d="M354.74 85.2524C359.165 86.5907 361.796 91.8043 360.62 96.8376L356.135 115.902C354.96 120.936 350.376 123.928 345.951 122.591C341.527 121.253 338.896 116.039 340.072 111.006L344.556 91.9408C345.752 86.9076 350.336 83.8922 354.74 85.2524Z" fill="#918B9C" />
                <path id="Vector_54" fill-rule="evenodd" clip-rule="evenodd" d="M372.737 87.8144L359.344 83.7338L354.222 105.452L367.615 109.533C370.624 110.44 373.733 108.399 374.551 104.976L376.743 95.6807C377.54 92.2807 375.746 88.7212 372.737 87.8144Z" fill="#847D91" />
                <g id="Group_9">
                    <path id="Vector_55" fill-rule="evenodd" clip-rule="evenodd" d="M335.309 76.4115L358.029 83.3262C361.776 84.4592 364.008 88.8796 363.011 93.1197C362.015 97.3817 358.128 99.9207 354.402 98.7867L331.682 91.8721C327.935 90.7391 325.703 86.3187 326.699 82.0786C327.696 77.8166 331.562 75.2556 335.309 76.4115Z" fill="#D2CAE2" />
                    <path id="Vector_56" fill-rule="evenodd" clip-rule="evenodd" d="M333.974 76.003C330.964 75.0962 327.855 77.137 327.038 80.5599L324.846 89.8552C324.049 93.2781 325.842 96.8147 328.852 97.7444C331.861 98.6512 334.97 96.6104 335.787 93.1875L337.979 83.8922C338.777 80.4693 336.983 76.9098 333.974 76.003ZM359.344 83.7338C356.335 82.827 353.226 84.8678 352.409 88.2907L350.216 97.585C349.419 101.009 351.213 104.545 354.222 105.474C357.232 106.381 360.341 104.341 361.158 100.918L363.35 91.623C364.147 88.2 362.354 84.6406 359.344 83.7338Z" fill="#D2CAE2" />
                </g>
                <path id="Vector_57" fill-rule="evenodd" clip-rule="evenodd" d="M338.916 83.371L351.831 87.3161C352.728 87.5882 353.286 88.6534 353.026 89.6958C352.787 90.7162 351.851 91.3509 350.934 91.056L338.019 87.1119C337.122 86.8398 336.564 85.7746 336.824 84.7312C337.063 83.7108 338.019 83.099 338.916 83.371Z" fill="#3CD3C1" />
                <path id="Vector_58" fill-rule="evenodd" clip-rule="evenodd" d="M342.703 84.527L348.024 86.1592C348.921 86.4313 349.479 87.4975 349.22 88.5398C348.981 89.5602 348.044 90.195 347.127 89.9001L341.806 88.2678C340.909 87.9958 340.351 86.9305 340.61 85.8872C340.869 84.8678 341.806 84.2549 342.703 84.527Z" fill="white" />
                <path id="Vector_59" fill-rule="evenodd" clip-rule="evenodd" d="M343.5 101.53L345.513 102.142C346.43 102.414 346.988 103.502 346.749 104.567L345.672 109.124C345.433 110.168 344.477 110.802 343.54 110.53L341.527 109.918C340.61 109.646 340.052 108.557 340.291 107.492L341.368 102.935C341.627 101.87 342.583 101.258 343.5 101.53Z" fill="#D2CAE2" />
            </g>
            <path id="Vector_60" d="M356.873 145.736C366.823 145.736 374.889 136.562 374.889 125.243C374.889 113.924 366.823 104.749 356.873 104.749C346.923 104.749 338.856 113.924 338.856 125.243C338.856 136.562 346.923 145.736 356.873 145.736Z" fill="#D99A86" />
            <path id="Vector_61" fill-rule="evenodd" clip-rule="evenodd" d="M356.873 104.749C360.799 104.749 364.446 106.178 367.416 108.626C367.017 108.603 366.599 108.58 366.2 108.58C356.235 108.58 348.184 117.762 348.184 129.074C348.184 135.921 351.133 141.997 355.677 145.714C346.29 145.011 338.876 136.124 338.876 125.265C338.836 113.93 346.908 104.749 356.873 104.749V104.749Z" fill="#3CD3C1" />
            <path id="Vector_62" fill-rule="evenodd" clip-rule="evenodd" d="M284.667 139.276L295.808 142.676C297.602 143.22 298.658 145.329 298.18 147.347L297.004 152.311C296.525 154.351 294.672 155.553 292.898 155.009L281.757 151.609C279.964 151.065 278.907 148.956 279.386 146.938L280.562 141.974C281.04 139.933 282.893 138.732 284.667 139.276Z" fill="#847D91" />
            <path id="Vector_63" fill-rule="evenodd" clip-rule="evenodd" d="M280.123 151.721C279.725 153.422 278.19 154.42 276.695 153.966C275.201 153.513 274.324 151.767 274.722 150.067L275.559 146.508C275.838 145.329 276.496 144.399 277.353 143.832H277.373C278.23 143.266 279.266 143.085 280.303 143.379L283.432 144.331C284.926 144.785 285.803 146.531 285.405 148.231C285.006 149.931 283.471 150.928 281.977 150.475L280.522 150.021L280.123 151.721V151.721ZM299.674 157.684C299.276 159.384 297.741 160.382 296.246 159.928C294.752 159.475 293.875 157.729 294.273 156.029L294.672 154.374L293.217 153.921C291.722 153.467 290.845 151.721 291.244 150.021C291.643 148.321 293.177 147.324 294.672 147.777L297.801 148.729C298.817 149.047 299.634 149.795 300.133 150.77H300.153C300.651 151.744 300.81 152.946 300.531 154.102L299.674 157.684V157.684ZM286.72 136.329C287.358 136.51 287.736 137.258 287.557 137.984L286.859 140.953C286.7 141.679 286.042 142.109 285.405 141.906C284.767 141.725 284.388 140.976 284.568 140.251L285.265 137.281C285.425 136.556 286.082 136.124 286.72 136.329ZM295.33 138.935C295.967 139.117 296.346 139.865 296.167 140.59L295.469 143.56C295.31 144.285 294.652 144.717 294.014 144.513C293.377 144.331 292.998 143.583 293.177 142.858L293.875 139.888C294.034 139.185 294.692 138.754 295.33 138.935Z" fill="#847D91" />
            <path id="Vector_64" d="M286.507 145.323C286.672 144.622 286.306 143.901 285.69 143.712C285.073 143.525 284.439 143.942 284.274 144.642C284.108 145.344 284.475 146.065 285.091 146.253C285.708 146.441 286.341 146.024 286.507 145.323ZM293.796 147.524C293.961 146.823 293.595 146.102 292.979 145.914C292.362 145.726 291.728 146.142 291.563 146.843C291.398 147.545 291.763 148.266 292.38 148.454C292.997 148.642 293.631 148.226 293.796 147.524Z" fill="white" />
            <path id="Vector_65" fill-rule="evenodd" clip-rule="evenodd" d="M273.706 161.13L274.144 159.294C274.204 159.022 274.005 158.704 273.726 158.613L272.211 158.16C271.613 157.978 271.294 158.999 271.972 159.226L273.108 159.566L272.849 160.631C272.51 160.789 272.072 160.812 271.613 160.677C270.617 160.382 270.059 159.361 270.358 158.092C270.637 156.868 271.733 156.301 272.65 156.596C273.048 156.709 273.387 157.071 273.586 157.457C273.925 158.047 274.782 157.48 274.443 156.822C274.104 156.143 273.487 155.711 272.889 155.53C271.294 155.032 269.78 156.029 269.361 157.775C268.883 159.838 269.76 161.221 271.354 161.696C272.032 161.9 272.729 161.878 273.387 161.538C273.586 161.424 273.686 161.289 273.706 161.13ZM275.181 162.467C274.981 162.717 274.702 162.694 274.443 162.558C274.244 162.331 274.164 161.968 274.403 161.651L277.732 157.48C278.051 157.094 278.589 157.231 278.668 157.775L279.665 163.284C279.824 164.054 278.768 164.304 278.648 163.556L278.489 162.694L275.679 161.833L275.181 162.467V162.467ZM276.436 160.812L278.23 161.356L277.871 158.954L276.436 160.812ZM282.754 162.989C282.913 163.442 283.252 163.556 283.611 163.261L285.305 161.833L284.548 165.029C284.468 165.414 284.627 165.686 284.886 165.777C285.126 165.846 285.385 165.709 285.484 165.323L286.62 160.45C286.76 159.861 286.182 159.52 285.843 159.815L283.491 161.946L282.415 158.863C282.315 158.659 282.236 158.478 282.017 158.41C281.897 158.364 281.518 158.41 281.419 158.863L280.283 163.737C280.203 164.123 280.362 164.395 280.602 164.462C280.881 164.553 281.199 164.417 281.279 164.032L282.036 160.835L282.754 162.989V162.989ZM289.749 167.228L286.899 166.367C286.768 166.316 286.66 166.218 286.597 166.092C286.535 165.966 286.522 165.821 286.561 165.686L287.716 160.789C287.796 160.472 288.055 160.314 288.314 160.405L291.045 161.243C291.742 161.447 291.463 162.581 290.786 162.377L288.593 161.719L288.294 163.012L290.208 163.6C290.885 163.805 290.626 164.939 289.949 164.734L288.035 164.145L287.736 165.437L290.048 166.14C290.706 166.299 290.487 167.455 289.749 167.228V167.228ZM292.599 165.823L293.795 166.185L294.493 168.407C294.792 169.201 295.728 168.815 295.489 168.022L294.811 166.321C296.585 166.072 296.884 163.012 294.971 162.422L292.958 161.81C292.699 161.742 292.44 161.9 292.38 162.195L291.224 167.092C291.045 167.862 292.061 168.134 292.241 167.387L292.599 165.823ZM293.257 163.012L294.732 163.465C295.788 163.782 295.29 165.574 294.313 165.279L292.838 164.825L293.257 163.012ZM299.555 168.385C299.754 167.069 296.426 166.888 297.223 164.507C297.801 162.875 300.093 163.261 300.93 164.485C301.329 165.12 300.611 165.709 300.252 165.188C299.794 164.621 298.558 164.032 298.18 164.87C297.641 166.23 301.129 166.412 300.551 168.701C299.973 170.878 297.183 170.085 296.366 168.769C296.281 168.632 296.245 168.47 296.263 168.31C296.281 168.15 296.352 168 296.466 167.885C296.725 167.727 296.964 167.704 297.163 168.022C297.641 168.724 299.156 169.563 299.555 168.385V168.385ZM328.015 228.188C328.433 228.233 328.872 228.279 329.31 228.279C332.479 228.279 335.349 226.873 337.362 224.221C339.275 221.682 340.451 217.964 340.451 213.158V140.114C340.451 138.981 341.248 138.074 342.244 138.074C343.241 138.074 344.038 138.981 344.038 140.114V213.158C344.038 218.983 342.523 223.608 340.072 226.873C337.362 230.478 333.515 232.382 329.31 232.382C328.872 232.382 328.433 232.359 328.015 232.313V228.188Z" fill="#847D91" />
            <path id="Vector_66" fill-rule="evenodd" clip-rule="evenodd" d="M224.24 176.999C227.11 176.999 229.462 174.324 229.462 171.059C229.462 167.795 227.11 165.12 224.24 165.12C221.37 165.12 219.018 167.795 219.018 171.059C219.018 174.347 221.37 176.999 224.24 176.999ZM341.328 156.777C344.198 156.777 346.549 154.102 346.549 150.837C346.549 147.573 344.198 144.898 341.328 144.898C338.458 144.898 336.106 147.573 336.106 150.837C336.126 154.102 338.458 156.777 341.328 156.777Z" fill="#918B9C" />
            <path id="Vector_67" fill-rule="evenodd" clip-rule="evenodd" d="M306.789 102.188C324.049 107.447 334.392 127.805 329.768 147.437L321.378 183.029C317.312 200.281 302.983 211.458 287.856 210.324C294.871 205.564 300.332 197.833 302.584 188.198L310.975 152.606C315.598 132.973 305.255 112.616 287.995 107.357C285.952 106.735 283.847 106.339 281.718 106.178C289.012 101.235 297.98 99.4893 306.789 102.188V102.188Z" fill="#E6E6E6" />
            <path id="Vector_68" fill-rule="evenodd" clip-rule="evenodd" d="M292.619 51.2701C302.843 51.2701 311.214 60.7916 311.214 72.4216V103.004C311.214 114.633 302.843 124.154 292.619 124.154C282.395 124.154 274.025 114.633 274.025 103.004V72.4216C274.025 60.7916 282.395 51.2701 292.619 51.2701Z" fill="#D99A86" />
            <g id="Group_10">
                <path id="Vector_69" fill-rule="evenodd" clip-rule="evenodd" d="M316.794 99.0359C321.099 101.87 322.574 108.172 320.102 113.068L312.708 127.623C310.217 132.52 304.677 134.197 300.372 131.386C296.067 128.553 294.592 122.25 297.064 117.353L304.458 102.8C306.949 97.9029 312.489 96.2028 316.794 99.0359V99.0359Z" fill="#E6E6E6" />
                <path id="Vector_70" fill-rule="evenodd" clip-rule="evenodd" d="M272.091 99.0359C267.787 101.87 266.312 108.172 268.783 113.068L276.177 127.623C278.668 132.52 284.209 134.197 288.514 131.386C292.819 128.553 294.293 122.25 291.822 117.353L284.428 102.8C281.937 97.9029 276.376 96.2028 272.091 99.0359V99.0359Z" fill="white" />
            </g>
            <path id="Vector_71" fill-rule="evenodd" clip-rule="evenodd" d="M281 25.0634C297.622 25.0634 311.214 40.525 311.214 59.4314V75.0514C311.214 93.9578 297.622 109.419 281 109.419C264.379 109.419 250.787 93.9578 250.787 75.0514V59.4314C250.787 40.524 264.379 25.0634 281 25.0634V25.0634Z" fill="#FBBEAC" />
            <path id="Vector_72" fill-rule="evenodd" clip-rule="evenodd" d="M281 25.0634C297.622 25.0634 311.214 40.525 311.214 59.4314V75.0513C311.214 89.4915 303.282 101.915 292.141 106.993C294.592 102.028 295.987 96.3384 295.987 90.2628V63.6027C295.987 45.0131 282.834 29.7559 266.591 29.2347C270.896 26.5821 275.798 25.0634 281 25.0634V25.0634Z" fill="#D99A86" />
            <path id="Vector_73" fill-rule="evenodd" clip-rule="evenodd" d="M281 25.0634C288.633 25.0634 295.609 28.3279 300.95 33.6551C297.548 32.1489 293.869 31.3693 290.148 31.3662C273.526 31.3662 259.934 46.8268 259.934 65.7332V81.3531C259.934 91.5771 263.92 100.805 270.218 107.129C258.898 102.165 250.806 89.628 250.806 75.0513V59.4314C250.787 40.524 264.379 25.0634 281 25.0634Z" fill="#3CD3C1" />
            <path id="Vector_74" fill-rule="evenodd" clip-rule="evenodd" d="M258.34 19.9853H291.085C298 19.9853 303.68 26.4236 303.68 34.3129C303.68 42.1791 298.02 48.6404 291.085 48.6404H258.34C251.424 48.6404 245.744 42.2021 245.744 34.3129C245.744 26.4236 251.424 19.9853 258.34 19.9853Z" fill="#473E37" />
            <path id="Vector_75" d="M302.405 51.4973C308.668 51.4973 313.745 45.7217 313.745 38.5978C313.745 31.4728 308.668 25.6982 302.405 25.6982C296.142 25.6982 291.065 31.4738 291.065 38.5978C291.065 45.7217 296.142 51.4973 302.405 51.4973V51.4973Z" fill="#473E37" />
            <path id="Vector_76" fill-rule="evenodd" clip-rule="evenodd" d="M319.285 48.6175V63.7382C319.285 71.6055 313.625 78.0657 306.69 78.0657C299.774 78.0657 294.094 71.6274 294.094 63.7382V48.6175C294.094 40.7512 299.754 34.2899 306.69 34.2899C313.625 34.3128 319.285 40.7512 319.285 48.6175V48.6175Z" fill="#473E37" />
            <path id="Vector_77" fill-rule="evenodd" clip-rule="evenodd" d="M267.627 32.7942C265.096 34.7892 261.608 34.0637 259.875 31.1839C258.121 28.305 258.758 24.338 261.29 22.3649C264.345 19.9832 267.772 18.122 271.434 16.8563C275.001 15.6556 278.808 14.975 282.754 14.975C291.902 14.975 300.252 18.4886 306.371 24.1796C312.808 30.1645 316.814 38.5071 316.814 47.7565V74.1665C316.814 77.6811 314.303 80.537 311.214 80.537C308.125 80.537 305.613 77.6811 305.613 74.1665V47.7565C305.613 42.497 303.202 37.6222 299.336 34.0179C295.13 30.1186 289.271 27.6932 282.754 27.6932C279.884 27.6932 277.134 28.1695 274.623 29.0085C272.012 29.9154 269.66 31.2068 267.627 32.7942V32.7942Z" fill="#918B9C" />
            <path id="Vector_78" fill-rule="evenodd" clip-rule="evenodd" d="M282.296 91.6001C282.296 96.3384 278.907 100.192 274.742 100.192C270.577 100.192 267.189 96.3384 267.189 91.6001H282.296V91.6001Z" fill="white" />
            <path id="Vector_79" fill-rule="evenodd" clip-rule="evenodd" d="M267.627 32.7942C265.096 34.7892 261.608 34.0637 259.875 31.1839C258.121 28.305 258.758 24.338 261.29 22.3649C264.345 19.9832 267.772 18.122 271.434 16.8563C275.001 15.6556 278.808 14.975 282.754 14.975C286.142 14.975 289.47 15.4732 292.659 16.4259C295.987 17.4004 299.076 18.8294 301.807 20.6201C304.477 22.3659 305.414 26.2423 303.88 29.3025C302.345 32.3408 298.937 33.4061 296.246 31.6602C294.273 30.3907 292.141 29.3703 289.889 28.7136C287.697 28.0559 285.285 27.7161 282.734 27.7161C279.864 27.7161 277.114 28.1914 274.603 29.0315C272.012 29.9144 269.66 31.2068 267.627 32.7942V32.7942Z" fill="#D2CAE2" />
            <path id="Vector_80" d="M261.927 48.6174C271.195 48.6174 278.708 40.0716 278.708 29.5297C278.708 18.9868 271.195 10.4409 261.927 10.4409C252.66 10.4409 245.146 18.9868 245.146 29.5297C245.146 40.0716 252.66 48.6174 261.927 48.6174Z" fill="#4D433C" />
            <path id="Vector_81" fill-rule="evenodd" clip-rule="evenodd" d="M257.224 48.6175C246.801 48.6175 238.33 39.0053 238.33 27.1262C238.33 15.248 246.781 5.63486 257.224 5.63486C258.938 5.63486 260.592 5.88398 262.166 6.38322C254.135 8.85452 248.216 17.1971 248.216 27.1262C248.216 37.0562 254.135 45.3988 262.166 47.8701C260.592 48.3683 258.918 48.6175 257.224 48.6175Z" fill="#3CD3C1" />
            <path id="Vector_82" d="M257.084 41.2504C263.282 41.2504 268.305 35.5355 268.305 28.4864C268.305 21.4382 263.282 15.7233 257.084 15.7233C250.887 15.7233 245.864 21.4372 245.864 28.4864C245.864 35.5355 250.887 41.2504 257.084 41.2504Z" fill="#544A43" />
            <path id="Vector_83" fill-rule="evenodd" clip-rule="evenodd" d="M298.04 51.4973H319.046C320.282 51.4973 321.298 52.6532 321.298 54.0583V63.2629C321.298 64.6679 320.282 65.8248 319.046 65.8248H298.04C296.804 65.8248 295.788 64.6679 295.788 63.2629V54.0583C295.788 52.6303 296.804 51.4973 298.04 51.4973Z" fill="#918B9C" />
            <path id="Vector_84" d="M306.191 88.7212C313.148 88.7212 318.787 82.3068 318.787 74.3937C318.787 66.4805 313.148 60.0661 306.191 60.0661C299.235 60.0661 293.596 66.4805 293.596 74.3937C293.596 82.3068 299.235 88.7212 306.191 88.7212Z" fill="#D99A86" />
            <path id="Vector_85" fill-rule="evenodd" clip-rule="evenodd" d="M253.716 40.0257H293.695C300.85 40.0257 306.69 46.6683 306.69 54.8067V62.4687C306.69 70.608 300.85 77.2506 293.695 77.2506H253.716C246.561 77.2506 240.722 70.608 240.722 62.4687V54.8067C240.722 46.6903 246.561 40.0257 253.716 40.0257V40.0257Z" fill="#D2CAE2" />
            <path id="Vector_86" fill-rule="evenodd" clip-rule="evenodd" d="M304.657 46.8945C305.464 48.3284 306.036 49.8824 306.351 51.4973H241.041C241.38 49.8422 241.958 48.3006 242.735 46.8945H304.657V46.8945Z" fill="#79D1D1" />
            <path id="Vector_87" fill-rule="evenodd" clip-rule="evenodd" d="M243.632 40.0257H274.722C281.877 40.0257 287.716 46.6683 287.716 54.8067V62.4687C287.716 70.608 281.877 77.2506 274.722 77.2506H243.632C236.477 77.2506 230.637 70.608 230.637 62.4687V54.8067C230.637 46.6903 236.497 40.0257 243.632 40.0257V40.0257Z" fill="#F4EFF5" />
            <path id="Vector_88" fill-rule="evenodd" clip-rule="evenodd" d="M278.389 40.6376C283.77 42.4512 287.716 48.1411 287.716 54.8296V62.4916C287.716 69.179 283.77 74.87 278.389 76.6836C275.838 73.1919 274.284 68.7256 274.284 63.8747V53.4694C274.284 48.5945 275.838 44.1064 278.389 40.6376Z" fill="#E0E0E0" />
            <path id="Vector_89" fill-rule="evenodd" clip-rule="evenodd" d="M252.202 40.0257H264.14L258.26 77.2725H246.322L252.202 40.0257ZM265.774 40.0257L259.894 77.2725H266.471L272.351 40.0257H265.774Z" fill="white" />
            <path id="Vector_90" fill-rule="evenodd" clip-rule="evenodd" d="M255.649 58.9102H262.724C263.841 58.9102 264.757 59.9525 264.757 61.2221C264.757 62.4916 263.841 63.5349 262.724 63.5349H255.649C254.533 63.5349 253.617 62.4916 253.617 61.2221C253.617 59.9525 254.533 58.9102 255.649 58.9102Z" fill="#3CD3C1" />
            <path id="Vector_91" fill-rule="evenodd" clip-rule="evenodd" d="M316.555 52.3583H318.707C324.327 52.3583 328.931 57.5948 328.931 63.9883V75.9352C328.931 82.3277 324.327 87.5653 318.707 87.5653H316.555C312.111 87.5653 308.483 83.4388 308.483 78.3836V61.5399C308.503 56.4837 312.13 52.3583 316.555 52.3583V52.3583Z" fill="#918B9C" />
            <path id="Vector_92" fill-rule="evenodd" clip-rule="evenodd" d="M311.174 52.3583H313.326C314.223 52.3583 315.1 52.4938 315.937 52.7439C312.609 53.8769 310.177 57.3905 310.177 61.5399V78.3836C310.177 82.5091 312.609 86.0456 315.937 87.1796C315.1 87.4287 314.223 87.5653 313.326 87.5653H311.174C306.729 87.5653 303.102 83.4388 303.102 78.3836V61.5399C303.102 56.4837 306.749 52.3583 311.174 52.3583V52.3583Z" fill="#D2CAE2" />
            <path id="Vector_93" fill-rule="evenodd" clip-rule="evenodd" d="M285.684 46.8945C286.491 48.3284 287.063 49.8824 287.378 51.4973H230.956C231.295 49.8422 231.873 48.3006 232.65 46.8945H285.684Z" fill="#3CD3C1" />
            <path id="Vector_94" fill-rule="evenodd" clip-rule="evenodd" d="M256.347 23.7939H268.345C271.195 23.7939 273.526 26.4465 273.526 29.6881C273.526 32.9297 271.195 35.5824 268.345 35.5824H256.347C253.497 35.5824 251.165 32.9297 251.165 29.6881C251.165 26.4465 253.497 23.7939 256.347 23.7939Z" fill="#544A43" />
            <path id="Vector_95" fill-rule="evenodd" clip-rule="evenodd" d="M321.517 56.711C324.288 56.711 326.56 59.2949 326.56 62.4468V70.2672C326.56 73.4191 324.288 76.003 321.517 76.003C318.747 76.003 316.475 73.4191 316.475 70.2672V62.4468C316.475 59.2949 318.747 56.711 321.517 56.711Z" fill="#A19AAD" />
            <path id="Vector_96" fill-rule="evenodd" clip-rule="evenodd" d="M317.053 77.1141H321.976C323.012 77.1141 323.869 78.0887 323.869 79.2675C323.869 80.4463 323.012 81.4209 321.976 81.4209H317.053C316.017 81.4209 315.16 80.4463 315.16 79.2675C315.16 78.0887 316.017 77.1141 317.053 77.1141Z" fill="#3CD3C1" />
            <path id="Vector_97" fill-rule="evenodd" clip-rule="evenodd" d="M239.985 40.6376C234.604 42.4512 230.657 48.1411 230.657 54.8296V62.4916C230.657 69.179 234.604 74.87 239.985 76.6836C242.536 73.1919 244.09 68.7256 244.09 63.8747V53.4694C244.07 48.5945 242.536 44.1064 239.985 40.6376Z" fill="#E0E0E0" />
            <path id="Vector_98" fill-rule="evenodd" clip-rule="evenodd" d="M243.632 40.0257H252.281C245.126 40.0257 239.287 46.6683 239.287 54.8067V62.4687C239.287 70.608 245.126 77.2506 252.281 77.2506H243.632C236.477 77.2506 230.637 70.608 230.637 62.4687V54.8067C230.637 46.6903 236.497 40.0257 243.632 40.0257V40.0257Z" fill="#79D1D1" />
            <path id="Vector_99" fill-rule="evenodd" clip-rule="evenodd" d="M242.476 45.1487C240.503 47.7565 239.287 51.1336 239.287 54.8066V62.4687C239.287 66.1646 240.483 69.5417 242.476 72.1266C241.837 73.7325 240.993 75.2488 239.965 76.6377C239.542 76.501 239.129 76.3345 238.729 76.1395C236.816 75.2546 235.122 73.8496 233.766 72.0589C231.734 69.3155 230.637 66.051 230.637 62.4467V54.7837C230.637 49.9328 232.77 45.3759 236.238 42.6325C237.294 41.7486 238.729 41.0003 239.965 40.5927C240.984 42.0034 241.827 43.5334 242.476 45.1487V45.1487Z" fill="#3CD3C1" />
            <path id="Vector_100" fill-rule="evenodd" clip-rule="evenodd" d="M321.896 113.068C321.896 114.202 321.099 115.109 320.102 115.109C319.106 115.109 318.309 114.202 318.309 113.068V87.0212C318.309 85.8872 319.106 84.9804 320.102 84.9804C321.099 84.9804 321.896 85.8872 321.896 87.0212V113.068Z" fill="#847D91" />
        </g>
        <g id="Group_11">
            <path id="Vector_101" fill-rule="evenodd" clip-rule="evenodd" d="M336.046 281.871C336.644 281.871 337.142 282.415 337.162 283.095C337.162 283.775 336.684 284.342 336.086 284.364C326.659 284.568 317.073 284.727 307.387 284.817C297.422 284.931 287.657 284.977 278.21 284.977C215.949 284.977 159.568 282.913 118.732 279.581C77.2976 276.203 51.6878 271.193 51.6878 265.321C51.6878 261.921 59.2611 258.883 73.3914 256.367C86.9636 253.964 106.814 251.81 131.985 250.065C132.583 250.019 133.101 250.54 133.141 251.244C133.181 251.923 132.722 252.513 132.105 252.558C106.973 254.304 87.2027 256.457 73.7102 258.838C60.7957 261.128 53.8801 263.326 53.8801 265.321C53.8801 269.629 78.7126 273.8 118.871 277.088C159.628 280.42 215.949 282.461 278.19 282.461C288.255 282.461 298 282.415 307.367 282.301C317.013 282.234 326.599 282.075 336.046 281.871V281.871Z" fill="#3CD3C1" />
            <path id="Vector_102" fill-rule="evenodd" clip-rule="evenodd" d="M362.374 249.543C361.776 249.521 361.297 248.954 361.297 248.251C361.317 247.571 361.815 247.027 362.433 247.05C405.123 248.455 440.458 250.835 465.112 253.828C490.383 256.888 504.692 260.856 504.692 265.367C504.692 269.538 492.575 273.256 470.792 276.181C449.646 279.014 419.094 281.372 381.566 282.959C380.968 282.982 380.45 282.438 380.43 281.757C380.41 281.078 380.888 280.488 381.486 280.465C418.914 278.901 449.407 276.521 470.533 273.687C491.04 270.943 502.48 268.065 502.48 265.367C502.48 262.375 488.868 259.224 464.853 256.322C440.259 253.329 405.003 250.926 362.374 249.543V249.543Z" fill="white" />
        </g>
        <g id="Group_12">
            <path id="Vector_103" fill-rule="evenodd" clip-rule="evenodd" d="M388.641 259.722C396.135 260.719 400.898 262.239 400.898 263.893C400.898 266.932 385.253 269.38 365.961 269.38C346.669 269.38 331.024 266.932 331.024 263.893C331.024 262.216 335.787 260.719 343.281 259.722C342.145 260.175 341.507 260.652 341.507 261.151C341.507 263.281 352.448 265.004 365.961 265.004C379.473 265.004 390.415 263.281 390.415 261.151C390.395 260.652 389.777 260.153 388.641 259.722V259.722Z" fill="#3CD3C1" />
            <path id="Vector_104" fill-rule="evenodd" clip-rule="evenodd" d="M365.941 253.918C376.882 253.918 385.791 252.513 385.791 250.79C385.791 249.067 376.882 247.661 365.941 247.661C354.999 247.661 346.091 249.067 346.091 250.79C346.091 252.513 355.019 253.918 365.941 253.918Z" fill="white" />
            <path id="Vector_105" fill-rule="evenodd" clip-rule="evenodd" d="M365.941 239.659C371.043 239.659 375.188 234.943 375.188 229.14C375.188 223.336 371.043 218.621 365.941 218.621C360.839 218.621 356.693 223.336 356.693 229.14C356.693 234.943 360.859 239.659 365.941 239.659Z" fill="#3CD3C1" />
        </g>
        <path id="Vector_106" fill-rule="evenodd" clip-rule="evenodd" d="M443.229 86.6585H446.557C447.274 86.6585 447.753 87.3381 447.593 88.1542L447.055 91.1696H449.706C450.423 91.1696 450.902 91.8492 450.742 92.6653L450.065 96.452C449.925 97.2681 449.208 97.9477 448.49 97.9477H445.84L445.301 100.963C445.162 101.779 444.444 102.459 443.727 102.459H440.379C439.661 102.459 439.183 101.779 439.342 100.963L439.881 97.9477H437.23C436.512 97.9477 436.034 97.2681 436.193 96.452L436.871 92.6653C437.011 91.8492 437.728 91.1696 438.446 91.1696H441.096L441.634 88.1542C441.794 87.3152 442.511 86.6585 443.229 86.6585ZM102.589 211.616H99.2602C98.5428 211.616 98.0645 212.296 98.2239 213.112L98.762 216.127H96.1113C95.3939 216.127 94.9155 216.807 95.075 217.623L95.7526 221.41C95.8921 222.226 96.6096 222.906 97.3271 222.906H99.9777L100.516 225.921C100.655 226.737 101.373 227.417 102.09 227.417H105.419C106.136 227.417 106.614 226.737 106.455 225.921L105.917 222.906H108.567C109.285 222.906 109.763 222.226 109.604 221.41L108.926 217.623C108.787 216.807 108.069 216.127 107.352 216.127H104.701L104.163 213.112C104.023 212.296 103.306 211.616 102.589 211.616Z" fill="white" />
        <g id="Group_13">
            <path id="Vector_107" fill-rule="evenodd" clip-rule="evenodd" d="M57.1286 15.4961H189.223C190.1 15.4961 190.937 15.9047 191.555 16.5394C192.193 17.1971 192.631 18.081 192.731 19.0785L201.839 113.182C201.859 113.319 201.859 113.454 201.859 113.591C201.864 114.406 201.605 115.201 201.121 115.858C200.643 116.447 200.005 116.855 199.228 116.946C199.109 116.969 198.989 116.969 198.889 116.969H66.7946C65.9177 116.969 65.0806 116.56 64.4429 115.925C63.7757 115.236 63.3613 114.341 63.267 113.386L54.1591 19.2598C54.1392 19.1243 54.1392 18.9878 54.1392 18.8513C54.1392 17.9903 54.4182 17.1971 54.8766 16.5843C55.1032 16.2855 55.3876 16.0352 55.7129 15.8485C56.0381 15.6617 56.3976 15.5422 56.7699 15.4971H57.1286V15.4961ZM189.223 17.1742H56.9493C56.5706 17.22 56.2318 17.4233 55.9926 17.7183C55.7535 18.0132 55.614 18.4208 55.614 18.8742V19.1014L64.7219 113.205C64.7817 113.772 65.0408 114.316 65.4194 114.702C65.7981 115.086 66.2764 115.314 66.7747 115.314H199.049C199.427 115.268 199.766 115.064 200.005 114.769C200.245 114.474 200.384 114.067 200.384 113.613V113.386L191.276 19.2828C191.216 18.7204 190.971 18.1939 190.579 17.786C190.2 17.4014 189.722 17.1742 189.223 17.1742V17.1742Z" fill="#3CD3C1" />
            <path id="Vector_108" fill-rule="evenodd" clip-rule="evenodd" d="M73.0924 30.4365H98.2438C100.117 30.4365 101.811 32.1823 102.011 34.2899C102.21 36.4214 100.855 38.1443 98.9812 38.1443H73.8497C71.9763 38.1443 70.2823 36.3985 70.083 34.2899C69.8638 32.1823 71.219 30.4365 73.0924 30.4365ZM107.89 30.4365H110.8C112.673 30.4365 114.367 32.1823 114.566 34.2899C114.766 36.4214 113.41 38.1443 111.537 38.1443H108.627C106.754 38.1443 105.06 36.3985 104.861 34.2899C104.661 32.1823 106.016 30.4365 107.89 30.4365ZM75.9224 49.8192H177.066C178.421 49.8192 179.717 50.454 180.713 51.4514C181.748 52.5335 182.393 53.9292 182.547 55.4185L186.433 95.6129C186.453 95.8391 186.473 96.0434 186.473 96.2247C186.473 97.562 186.055 98.7638 185.337 99.6706C184.62 100.577 183.623 101.189 182.447 101.349C182.268 101.371 182.089 101.394 181.909 101.394H80.7455C79.3902 101.394 78.0948 100.759 77.0983 99.7613C76.056 98.6844 75.4096 97.2859 75.2648 95.7942L71.3784 55.5998C71.3585 55.3736 71.3386 55.1693 71.3386 54.988C71.3386 53.6507 71.7571 52.4489 72.4746 51.5421C73.1921 50.6353 74.1886 50.0235 75.3644 49.864C75.5637 49.8192 75.7431 49.8192 75.9224 49.8192ZM177.066 51.4744H75.9224C75.7829 51.4744 75.6634 51.4744 75.5438 51.4963C74.7466 51.587 74.069 52.0184 73.5907 52.6303C73.1123 53.2421 72.8333 54.0583 72.8333 54.988C72.8333 55.1464 72.8333 55.2829 72.8533 55.4185L76.7396 95.6129C76.842 96.7078 77.321 97.7333 78.0948 98.5147C78.8322 99.263 79.7689 99.7164 80.7654 99.7164H181.909C182.049 99.7164 182.168 99.7164 182.288 99.6935C183.085 99.6028 183.763 99.1723 184.241 98.5595C184.719 97.9477 184.998 97.1315 184.998 96.2018C184.998 96.0434 184.998 95.9079 184.978 95.7713L181.072 55.5769C180.97 54.482 180.491 53.4565 179.717 52.6751C178.999 51.9497 178.063 51.4744 177.066 51.4744V51.4744Z" fill="#3CD3C1" />
            <path id="Vector_109" fill-rule="evenodd" clip-rule="evenodd" d="M142.289 100.555H80.7455C79.5696 100.555 78.4535 100.01 77.5966 99.1265L105.757 63.1263L142.289 100.555V100.555Z" fill="white" />
            <path id="Vector_110" fill-rule="evenodd" clip-rule="evenodd" d="M136.37 72.4893L163.773 100.554H114.407L136.37 72.4893ZM85.9272 58.5694C88.538 58.5694 90.9097 60.9958 91.1887 63.9654C91.4677 66.9349 89.5943 69.3604 86.9635 69.3604C84.3527 69.3604 81.9811 66.9349 81.7021 63.9654C81.4231 60.9729 83.3164 58.5694 85.9272 58.5694ZM163.992 63.5349C165.447 64.3052 166.583 65.9155 166.762 67.774C167.022 70.3588 165.347 72.4893 163.075 72.4893H156.2C153.928 72.4893 151.855 70.3808 151.596 67.774C151.417 65.9155 152.214 64.2832 153.529 63.5349C153.33 60.9729 154.964 58.9102 157.216 58.9102H159.388C161.66 58.9102 163.713 60.9729 163.992 63.5349V63.5349ZM175.95 30.4365H150.799C148.925 30.4365 147.231 32.1823 147.032 34.2899C146.833 36.4214 148.188 38.1443 150.061 38.1443H175.213C177.086 38.1443 178.78 36.3985 178.979 34.2899C179.179 32.1823 177.824 30.4365 175.95 30.4365V30.4365ZM141.153 30.4365H138.243C136.37 30.4365 134.676 32.1823 134.476 34.2899C134.277 36.4214 135.632 38.1443 137.506 38.1443H140.415C142.289 38.1443 143.983 36.3985 144.182 34.2899C144.381 32.1823 143.026 30.4365 141.153 30.4365Z" fill="white" />
        </g>
        <g id="Group_14">
            <path id="Vector_111" fill-rule="evenodd" clip-rule="evenodd" d="M340.092 115.314H453.931C454.13 115.314 454.31 115.335 454.489 115.381C455.067 115.517 455.545 115.858 455.884 116.356C456.223 116.832 456.402 117.444 456.402 118.125C456.402 118.328 456.382 118.555 456.342 118.804L441.355 199.919C441.196 200.779 440.737 201.573 440.16 202.117C439.562 202.684 438.804 203.024 438.027 203.024H324.188C323.989 203.024 323.809 203.002 323.63 202.956C323.064 202.821 322.567 202.482 322.235 202.004C321.896 201.528 321.717 200.916 321.717 200.235C321.717 200.031 321.737 199.805 321.776 199.556L336.764 118.442C336.923 117.581 337.382 116.786 337.959 116.242C338.557 115.676 339.315 115.314 340.092 115.314V115.314ZM453.931 116.991H340.092C339.673 116.991 339.255 117.195 338.896 117.512C338.537 117.853 338.278 118.283 338.199 118.781L323.211 199.896C323.192 200.009 323.172 200.122 323.172 200.235C323.172 200.53 323.251 200.779 323.371 200.961C323.49 201.142 323.69 201.279 323.909 201.324C323.989 201.346 324.068 201.347 324.168 201.347H438.007C438.426 201.347 438.844 201.142 439.203 200.825C439.562 200.485 439.821 200.054 439.9 199.556L454.888 118.442C454.908 118.328 454.908 118.215 454.908 118.102C454.908 117.807 454.828 117.558 454.708 117.376C454.583 117.19 454.39 117.06 454.17 117.014C454.13 116.991 454.031 116.991 453.931 116.991V116.991Z" fill="#3CD3C1" />
            <path id="Vector_112" fill-rule="evenodd" clip-rule="evenodd" d="M411.76 165.89L407.036 191.439C394.64 191.439 386.688 180.014 389.299 165.89C391.909 151.789 404.067 140.341 416.463 140.341C428.859 140.341 436.811 151.767 434.2 165.89H411.76Z" fill="#3CD3C1" />
            <path id="Vector_113" fill-rule="evenodd" clip-rule="evenodd" d="M414.809 170.288H429.537C427.823 179.537 419.851 187.042 411.7 187.042L414.809 170.288ZM350.216 140.704H366.758C368.053 140.704 368.891 141.905 368.631 143.402C368.352 144.875 367.077 146.099 365.762 146.099H349.22C347.924 146.099 347.087 144.897 347.346 143.402C347.625 141.928 348.901 140.704 350.216 140.704ZM348.223 151.472H364.765C366.06 151.472 366.898 152.674 366.638 154.17C366.359 155.643 365.084 156.867 363.769 156.867H347.227C345.931 156.867 345.094 155.666 345.353 154.17C345.632 152.674 346.928 151.472 348.223 151.472Z" fill="white" />
            <path id="Vector_114" fill-rule="evenodd" clip-rule="evenodd" d="M346.23 162.217H362.772C364.068 162.217 364.905 163.419 364.645 164.916C364.366 166.389 363.091 167.613 361.776 167.613H345.234C343.938 167.613 343.101 166.412 343.36 164.916C343.639 163.419 344.935 162.217 346.23 162.217ZM344.257 172.963H360.799C362.094 172.963 362.932 174.165 362.672 175.661C362.393 177.135 361.118 178.358 359.803 178.358H343.261C341.965 178.358 341.128 177.158 341.387 175.661C341.666 174.187 342.942 172.963 344.257 172.963Z" fill="#3CD3C1" />
            <path id="Vector_115" fill-rule="evenodd" clip-rule="evenodd" d="M342.264 183.732H358.806C360.101 183.732 360.939 184.933 360.679 186.429C360.4 187.903 359.125 189.128 357.81 189.128H341.268C339.972 189.128 339.135 187.926 339.394 186.429C339.673 184.933 340.969 183.732 342.264 183.732Z" fill="white" />
            <path id="Vector_116" fill-rule="evenodd" clip-rule="evenodd" d="M376.205 140.704H382.104C383.399 140.704 384.236 141.905 383.977 143.402C383.698 144.875 382.423 146.099 381.107 146.099H375.208C373.913 146.099 373.076 144.897 373.335 143.402C373.614 141.928 374.909 140.704 376.205 140.704ZM374.212 151.472H380.111C381.406 151.472 382.243 152.674 381.984 154.17C381.705 155.643 380.43 156.867 379.115 156.867H373.215C371.92 156.867 371.083 155.666 371.342 154.17C371.641 152.674 372.916 151.472 374.212 151.472Z" fill="#3CD3C1" />
            <path id="Vector_117" fill-rule="evenodd" clip-rule="evenodd" d="M372.239 162.217H378.138C379.433 162.217 380.27 163.419 380.011 164.916C379.732 166.389 378.457 167.613 377.141 167.613H371.242C369.947 167.613 369.11 166.412 369.369 164.916C369.648 163.419 370.923 162.217 372.239 162.217ZM370.246 172.963H376.145C377.44 172.963 378.277 174.165 378.018 175.661C377.739 177.135 376.464 178.358 375.148 178.358H369.249C367.954 178.358 367.117 177.158 367.376 175.661C367.655 174.187 368.95 172.963 370.246 172.963ZM368.253 183.732H374.152C375.447 183.732 376.284 184.933 376.025 186.429C375.746 187.903 374.471 189.128 373.156 189.128H367.256C365.961 189.128 365.124 187.926 365.383 186.429C365.682 184.933 366.957 183.732 368.253 183.732ZM335.169 131.885C334.771 131.885 334.432 131.522 334.432 131.046C334.432 130.593 334.751 130.207 335.169 130.207H453.333C453.732 130.207 454.07 130.57 454.07 131.046C454.07 131.5 453.752 131.885 453.333 131.885H335.169Z" fill="white" />
        </g>
        <path id="Vector_118" d="M124.631 167.546H97.5064V175.547H124.631V167.546Z" fill="#5B6980" />
    </g>
</svg>
