<svg xmlns="http://www.w3.org/2000/svg" fill="none" width="600" height="453.403" viewBox="0 0 600 455">
    <defs />
    <g clip-path="url(#clip0)">
        <path fill="#4C6282" fill-rule="evenodd" d="M307.72 396.487c78.98 0 143.4-7.439 143.4-16.562 0-9.123-64.42-16.562-143.4-16.562s-143.4 7.439-143.4 16.562c0 9.1 64.42 16.562 143.4 16.562z" clip-rule="evenodd" />
        <path fill="#4C6282" fill-rule="evenodd" d="M300.1 384.794c145.46 0 264.08-13.696 264.08-30.508 0-16.812-118.64-30.508-264.08-30.508-145.46 0-264.08 13.696-264.08 30.508 0 16.812 118.62 30.508 264.08 30.508z" clip-rule="evenodd" />
        <path fill="#61799E" fill-opacity=".16" fill-rule="evenodd" d="M307.72 58.74c118.72 0 214.98 109.473 214.98 244.54 0 14.742-1.14 29.166-3.34 43.18H96.08c-2.2-14.014-3.34-28.461-3.34-43.18 0-135.044 96.26-244.54 214.98-244.54z" clip-rule="evenodd" />
        <path fill="#38475C" fill-rule="evenodd" d="M300.1 371.075c124.6 0 226.22-11.739 226.22-26.14 0-14.4-101.62-26.139-226.22-26.139S73.88 330.535 73.88 344.935c0 14.401 101.62 26.14 226.22 26.14z" clip-rule="evenodd" />
        <path fill="#66768F" d="M287.78 201.428h-26.56v32.942h26.56v-32.942z" />
        <path fill="#66768F" fill-rule="evenodd" d="M318.44 149.945H237.6c-3.04 0-5.54 2.821-5.54 6.302v51.733c0 3.458 2.48 6.302 5.54 6.302h80.84c3.04 0 5.54-2.821 5.54-6.302v-51.733c0-3.458-2.48-6.302-5.54-6.302z" clip-rule="evenodd" />
        <path fill="#7C8CA6" fill-rule="evenodd" d="M311.38 149.945h-80.84c-3.04 0-5.54 2.821-5.54 6.302v51.733c0 3.458 2.48 6.302 5.54 6.302h80.84c3.04 0 5.54-2.821 5.54-6.302v-51.733c0-3.458-2.5-6.302-5.54-6.302z" clip-rule="evenodd" />
        <path fill="#3CD3C1" fill-rule="evenodd" d="M304.98 155.041h-68.04c-2.56 0-4.66 2.389-4.66 5.301v43.566c0 2.912 2.1 5.301 4.66 5.301h68.04c2.56 0 4.66-2.389 4.66-5.301v-43.566c0-2.912-2.1-5.301-4.66-5.301z" clip-rule="evenodd" />
        <g fill="#fff">
            <path d="M274.5 174.083h-37.1v23.296h37.1v-23.296zM274.5 168.122h-37.1v3.436h37.1v-3.436zM274.5 162.594h-37.1v3.435h37.1v-3.435z" />
        </g>
        <path fill="#66768F" d="M177.04 201.428h-26.56v32.942h26.56v-32.942z" />
        <path fill="#66768F" fill-rule="evenodd" d="M119.82 149.945h80.84c3.04 0 5.54 2.821 5.54 6.302v51.733c0 3.458-2.48 6.302-5.54 6.302h-80.84c-3.04 0-5.54-2.821-5.54-6.302v-51.733c0-3.458 2.5-6.302 5.54-6.302z" clip-rule="evenodd" />
        <path fill="#7C8CA6" fill-rule="evenodd" d="M126.9 149.945h80.84c3.04 0 5.54 2.821 5.54 6.302v51.733c0 3.458-2.48 6.302-5.54 6.302H126.9c-3.04 0-5.54-2.821-5.54-6.302v-51.733c0-3.458 2.48-6.302 5.54-6.302z" clip-rule="evenodd" />
        <path fill="#3CD3C1" fill-rule="evenodd" d="M133.28 155.041h68.04c2.56 0 4.66 2.389 4.66 5.301v43.566c0 2.912-2.1 5.301-4.66 5.301h-68.04c-2.56 0-4.66-2.389-4.66-5.301v-43.566c0-2.912 2.1-5.301 4.66-5.301z" clip-rule="evenodd" />
        <g fill="#fff">
            <path d="M200.88 174.083h-37.1v23.296h37.1v-23.296zM200.88 168.122h-37.1v3.436h37.1v-3.436zM200.88 162.594h-37.1v3.435h37.1v-3.435z" />
        </g>
        <path fill="#2D3540" d="M487.42 244.198H112.76v100.737h374.66V244.198z" />
        <path fill="#38475C" fill-rule="evenodd" d="M112.76 244.198h77.76l-10.1 100.76h-77.76l10.1-100.76zM409.68 244.198h77.76l10.1 100.76h-77.76l-10.1-100.76z" clip-rule="evenodd" />
        <path fill="#687A96" d="M492.72 234.393H107.46v12.058h385.26v-12.058z" />
        <path fill="#7C8CA6" d="M201.12 234.393h-93.66v12.058h93.66v-12.058zM492.72 234.393h-93.66v12.058h93.66v-12.058z" />
        <path fill="#93A2BA" d="M201.12 234.393h-17.74v12.058h17.74v-12.058zM416.8 234.393h-17.74v12.058h17.74v-12.058z" />
        <path fill="#66768F" d="M225.88 226.34h-92.96v8.03h92.96v-8.03z" />
        <g fill-rule="evenodd" clip-rule="evenodd">
            <path fill="#fff" d="M197.18 239.808c5.76 0 11.24 2.661 15.44 6.961 4.18 4.3 7.1 10.238 7.74 16.79.08.91.14 1.774.14 2.639 0 5.551-1.72 10.533-4.66 14.287-2.94 3.754-7.08 6.256-11.9 6.87-.76.091-1.52.137-2.28.137-5.76 0-11.24-2.662-15.44-6.962-4.18-4.299-7.1-10.237-7.74-16.789-.08-.91-.12-1.775-.12-2.639 0-5.551 1.72-10.533 4.66-14.287 2.94-3.754 7.08-6.257 11.9-6.871.74-.068 1.5-.136 2.26-.136zm14.46 8.212c-3.94-4.026-9.06-6.529-14.46-6.529-.72 0-1.44.046-2.12.137-4.46.546-8.26 2.866-10.96 6.324-2.7 3.458-4.3 8.054-4.3 13.173 0 .819.04 1.638.12 2.457.6 6.142 3.32 11.693 7.26 15.72 3.94 4.027 9.06 6.529 14.46 6.529.72 0 1.44-.045 2.12-.136 4.46-.546 8.26-2.867 10.96-6.325 2.7-3.458 4.3-8.053 4.3-13.172 0-.819-.04-1.638-.12-2.457-.6-6.143-3.34-11.694-7.26-15.721z" />
            <path fill="#3CD3C1" d="M180.38 254.277c4.14 0 7.86 3.822 8.32 8.531.46 4.709-2.54 8.531-6.66 8.531-4.14 0-7.86-3.822-8.32-8.531-.46-4.732 2.52-8.531 6.66-8.531z" />
            <path fill="#fff" d="M213.5 298.389c3.34 0 6.58.091 9.64.25l-2.62 3.64a71.949 71.949 0 00-7-.341c-2.54 0-4.94.114-7 .341l-2.62-3.64c3.02-.159 6.26-.25 9.6-.25zm14.36.592c11.36 1.001 19.22 3.116 19.22 5.596s-7.86 4.618-19.22 5.597l-2.9-4.027c1.78-.432 2.82-.978 2.82-1.57 0-.591-1.04-1.137-2.82-1.57l2.9-4.026zm-4.72 11.534a185.853 185.853 0 01-19.28 0l2.62-3.64c2.06.205 4.46.341 7 .341s4.94-.114 7-.341l2.66 3.64zm-24-.341c-11.36-1.001-19.22-3.117-19.22-5.597 0-2.48 7.86-4.618 19.22-5.596l2.9 4.026c-1.78.433-2.82.979-2.82 1.57 0 .592 1.04 1.138 2.82 1.57l-2.9 4.027z" />
        </g>
        <g>
            <path fill="#918B9C" fill-rule="evenodd" d="M297.48 169.123c4.78-6.916 13.6-8.121 19.68-2.684s7.14 15.47 2.36 22.386l-25.66 37.105c-4.78 6.916-13.6 8.122-19.68 2.685-6.08-5.438-7.14-15.47-2.36-22.386l25.66-37.106z" clip-rule="evenodd" />
            <path fill="#3CD3C1" fill-rule="evenodd" d="M297.48 169.123c4.18-6.051 11.46-7.735 17.28-4.413-3.94.205-7.76 2.275-10.38 6.074l-25.66 37.105c-4.78 6.916-3.72 16.949 2.36 22.386.76.683 1.58 1.252 2.4 1.729-3.24.16-6.54-.932-9.3-3.389-6.08-5.438-7.14-15.47-2.36-22.386l25.66-37.106z" clip-rule="evenodd" />
            <path fill="#918B9C" d="M286.86 238.101c12.095 0 21.9-11.153 21.9-24.911 0-13.758-9.805-24.911-21.9-24.911-12.095 0-21.9 11.153-21.9 24.911 0 13.758 9.805 24.911 21.9 24.911z" />
            <path fill="#3CD3C1" fill-rule="evenodd" d="M286.86 188.279c1.98 0 3.9.296 5.72.864-9.8 2.48-17.12 12.422-17.12 24.32 0 11.512 6.86 21.203 16.18 24.047-1.54.387-3.14.591-4.78.591-12.1 0-21.9-11.147-21.9-24.911 0-13.764 9.8-24.911 21.9-24.911z" clip-rule="evenodd" />
            <path fill="#38475C" d="M364.24 238.306h-37.06v114.979h37.06V238.306z" />
            <path fill="#38475C" fill-rule="evenodd" d="M327.18 238.306h37.06v69.297c0 11.602-8.34 21.089-18.54 21.089s-18.54-9.487-18.54-21.089v-69.297h.02z" clip-rule="evenodd" />
            <path fill="#D99A86" fill-rule="evenodd" d="M240.9 225.088c-7.66-1.274-12.96-9.373-11.84-18.086 1.12-8.713 8.24-14.742 15.9-13.468l39.9 6.78c7.66 1.274 12.96 9.373 11.84 18.086-1.12 8.713-8.24 14.742-15.9 13.468l-39.9-6.78z" clip-rule="evenodd" />
            <g fill-rule="evenodd" clip-rule="evenodd">
                <path fill="#918B9C" d="M249.62 186.163c5-1.524 10.18 1.888 11.52 7.553l5.08 21.567c1.34 5.688-1.66 11.58-6.64 13.104-5 1.524-10.18-1.888-11.52-7.553l-5.08-21.567c-1.36-5.687 1.64-11.58 6.64-13.104z" />
                <path fill="#847D91" d="M252.92 200.2c5-1.524 10.18 1.888 11.52 7.553l1.78 7.508c1.34 5.687-1.66 11.579-6.64 13.104-5 1.524-10.18-1.889-11.52-7.553l-1.76-7.508c-1.36-5.687 1.62-11.58 6.62-13.104zM231.6 163.641l-13.44 4.095 5.14 21.794 13.44-4.095c3.02-.91 4.82-4.482 4.02-7.917l-2.2-9.327c-.82-3.435-3.94-5.483-6.96-4.55z" />
                <path fill="#918B9C" d="M240.3 163.914c4.44-1.343 9.02 1.66 10.22 6.711l4.5 19.133c1.18 5.05-1.46 10.26-5.9 11.625-4.44 1.342-9.02-1.661-10.22-6.711l-4.5-19.133c-1.18-5.051 1.48-10.283 5.9-11.625z" />
                <path fill="#847D91" d="M257.06 155.86l-13.44 4.095 5.14 21.795 13.44-4.095c3.02-.91 4.82-4.482 4.02-7.917l-2.2-9.328c-.8-3.412-3.94-5.46-6.96-4.55z" />
                <g fill="#D2CAE2">
                    <path d="M219.5 167.326l22.8-6.939c3.76-1.137 7.64 1.411 8.64 5.688 1 4.277-1.24 8.69-5 9.828l-22.8 6.939c-3.76 1.137-7.64-1.411-8.64-5.688-1-4.277 1.26-8.69 5-9.828z" />
                    <path d="M218.16 167.736c-3.02.91-4.82 4.481-4.02 7.917l2.2 9.327c.8 3.435 3.94 5.483 6.96 4.573 3.02-.91 4.82-4.482 4.02-7.917l-2.2-9.327c-.82-3.458-3.94-5.506-6.96-4.573zM243.64 159.955c-3.02.91-4.82 4.482-4.02 7.917l2.2 9.328c.8 3.435 3.94 5.482 6.96 4.572 3.02-.91 4.82-4.481 4.02-7.917l-2.2-9.327c-.82-3.435-3.94-5.483-6.96-4.573z" />
                </g>
                <path fill="#3CD3C1" d="M225.72 171.308l12.96-3.959c.9-.273 1.86.341 2.1 1.365s-.3 2.116-1.2 2.389l-12.96 3.958c-.9.273-1.86-.341-2.1-1.365-.26-1.023.3-2.093 1.2-2.388z" />
                <path fill="#fff" d="M229.52 170.147l5.34-1.638c.9-.273 1.86.342 2.1 1.365.24 1.024-.3 2.116-1.2 2.389l-5.34 1.638c-.9.273-1.86-.341-2.1-1.365s.3-2.093 1.2-2.389z" />
                <path fill="#D2CAE2" d="M237.7 184.48l2.02-.615c.92-.273 1.88.342 2.14 1.411l1.08 4.573c.24 1.046-.3 2.138-1.24 2.434l-2.02.614c-.92.273-1.88-.341-2.14-1.41l-1.08-4.573c-.24-1.069.32-2.161 1.24-2.434z" />
            </g>
            <path fill="#847D91" fill-rule="evenodd" d="M293.02 291.018c0-1.137.8-2.047 1.8-2.047s1.8.91 1.8 2.047c0 6.12-2.2 11.671-5.74 15.698-3.54 4.026-8.42 6.529-13.8 6.529-5.38 0-10.26-2.503-13.8-6.529-3.54-4.027-5.74-9.578-5.74-15.698v-73.3c0-1.138.8-2.048 1.8-2.048s1.8.91 1.8 2.048v73.3c0 4.982 1.8 9.51 4.68 12.808 2.88 3.276 6.88 5.324 11.26 5.324s8.36-2.048 11.26-5.324c2.88-3.276 4.68-7.826 4.68-12.808z" clip-rule="evenodd" />
            <path fill="#FBBEAC" d="M244.64 226.112c9.985 0 18.08-9.207 18.08-20.566 0-11.358-8.095-20.566-18.08-20.566-9.985 0-18.08 9.208-18.08 20.566 0 11.359 8.095 20.566 18.08 20.566z" />
            <path fill="#3CD3C1" fill-rule="evenodd" d="M244.64 184.98c1.2 0 2.38.137 3.52.387-7.56 2.457-13.1 10.397-13.1 19.792 0 9.988 6.26 18.314 14.58 20.18-1.58.523-3.26.796-5 .796-10 0-18.08-9.214-18.08-20.566 0-11.375 8.1-20.589 18.08-20.589z" clip-rule="evenodd" />
            <path fill="#38475C" fill-rule="evenodd" d="M339.54 239.649h-37.46l-30.42 113.636h37.46l30.42-113.636z" clip-rule="evenodd" />
            <path fill="#3CD3C1" fill-rule="evenodd" d="M313.8 239.649h-11.72l-15.2 56.829 26.92-56.829z" clip-rule="evenodd" />
            <path fill="#38475C" d="M331.46 281.031c17.242 0 31.22-15.9 31.22-35.513s-13.978-35.513-31.22-35.513c-17.242 0-31.22 15.9-31.22 35.513s13.978 35.513 31.22 35.513z" />
            <path fill="#fff" fill-rule="evenodd" d="M342.94 160.752c17.32 5.278 27.7 25.707 23.06 45.409l-8.42 35.717c-4.64 19.701-22.6 31.509-39.92 26.231-17.32-5.278-27.7-25.708-23.06-45.409l8.42-35.718c4.62-19.724 22.6-31.508 39.92-26.23z" clip-rule="evenodd" />
            <path fill="#E6E6E6" fill-rule="evenodd" d="M341.84 186.982c-4.02-7.507-1.94-17.312 4.66-21.885s15.22-2.207 19.24 5.301l20.12 37.401c4.02 7.507 1.94 17.312-4.66 21.885s-15.22 2.207-19.24-5.301l-20.12-37.401z" clip-rule="evenodd" />
            <path fill="#E6E6E6" d="M371.92 239.398c12.095 0 21.9-11.153 21.9-24.911 0-13.758-9.805-24.911-21.9-24.911-12.095 0-21.9 11.153-21.9 24.911 0 13.758 9.805 24.911 21.9 24.911z" />
            <path fill="#D99A86" fill-rule="evenodd" d="M384.2 179.475c5.18-6.507 14.02-7.007 19.74-1.115 5.72 5.892 6.16 15.948.98 22.454l-20.64 25.935c-5.18 6.507-14.02 7.007-19.74 1.115-5.72-5.892-6.16-15.948-.98-22.454l20.64-25.935z" clip-rule="evenodd" />
            <path fill="#3CD3C1" fill-rule="evenodd" d="M384.2 179.475c3.4-4.255 8.36-5.961 12.98-4.96-3 .569-5.86 2.252-8.06 5.005l-20.64 25.935c-5.18 6.507-4.74 16.562.98 22.454 1.98 2.025 4.32 3.299 6.76 3.822-4.06.774-8.4-.5-11.7-3.89-5.72-5.892-6.16-15.948-.98-22.454l20.66-25.912z" clip-rule="evenodd" />
            <g fill-rule="evenodd" clip-rule="evenodd">
                <path fill="#918B9C" d="M389.34 168.327c5 1.525 7.98 7.417 6.64 13.104l-5.08 21.567c-1.34 5.688-6.52 9.077-11.52 7.553s-7.98-7.416-6.64-13.104l5.08-21.567c1.34-5.664 6.52-9.077 11.52-7.553z" />
                <path fill="#847D91" d="M386.04 182.364c5 1.524 7.98 7.417 6.64 13.104l-1.76 7.508c-1.34 5.687-6.52 9.077-11.52 7.553-5-1.525-7.98-7.417-6.64-13.104l1.78-7.508c1.32-5.665 6.5-9.077 11.5-7.553zM383.64 138.569l-13.44-4.095-5.14 21.795 13.44 4.095c3.02.91 6.14-1.138 6.96-4.573l2.2-9.327c.8-3.413-1-6.985-4.02-7.895z" />
                <path fill="#918B9C" d="M391.06 143.757c4.44 1.343 7.08 6.575 5.9 11.626l-4.5 19.132c-1.18 5.051-5.78 8.054-10.22 6.712-4.44-1.343-7.08-6.575-5.9-11.626l4.5-19.132c1.2-5.051 5.8-8.077 10.22-6.712z" />
                <path fill="#847D91" d="M409.12 146.328l-13.44-4.095-5.14 21.795 13.44 4.095c3.02.91 6.14-1.138 6.96-4.573l2.2-9.328c.8-3.412-1-6.984-4.02-7.894z" />
                <g fill="#D2CAE2">
                    <path d="M371.56 134.885l22.8 6.939c3.76 1.137 6 5.573 5 9.828-1 4.277-4.9 6.825-8.64 5.687l-22.8-6.939c-3.76-1.137-6-5.573-5-9.828 1-4.277 4.88-6.847 8.64-5.687z" />
                    <path d="M370.22 134.475c-3.02-.91-6.14 1.138-6.96 4.573l-2.2 9.328c-.8 3.435 1 6.984 4.02 7.917 3.02.91 6.14-1.138 6.96-4.573l2.2-9.328c.8-3.435-1-7.007-4.02-7.917zM395.68 142.233c-3.02-.91-6.14 1.138-6.96 4.573l-2.2 9.327c-.8 3.436 1 6.985 4.02 7.917 3.02.91 6.14-1.137 6.96-4.572l2.2-9.328c.8-3.435-1-7.007-4.02-7.917z" />
                </g>
                <path fill="#3CD3C1" d="M375.18 141.869l12.96 3.959c.9.273 1.46 1.342 1.2 2.388-.24 1.024-1.18 1.661-2.1 1.365l-12.96-3.958c-.9-.273-1.46-1.342-1.2-2.389.24-1.024 1.2-1.638 2.1-1.365z" />
                <path fill="#fff" d="M378.98 143.029l5.34 1.638c.9.273 1.46 1.343 1.2 2.389-.24 1.024-1.18 1.661-2.1 1.365l-5.34-1.638c-.9-.273-1.46-1.342-1.2-2.389.26-1.023 1.2-1.638 2.1-1.365z" />
                <path fill="#D2CAE2" d="M379.78 160.092l2.02.614c.92.273 1.48 1.365 1.24 2.434l-1.08 4.573c-.24 1.047-1.2 1.684-2.14 1.411l-2.02-.615c-.92-.273-1.48-1.365-1.24-2.434l1.08-4.573c.26-1.069 1.22-1.683 2.14-1.41z" />
            </g>
            <path fill="#D99A86" d="M393.2 204.454c9.985 0 18.08-9.207 18.08-20.566 0-11.358-8.095-20.566-18.08-20.566-9.985 0-18.08 9.208-18.08 20.566 0 11.359 8.095 20.566 18.08 20.566z" />
            <path fill="#3CD3C1" fill-rule="evenodd" d="M393.2 163.322c3.94 0 7.6 1.434 10.58 3.891-.4-.023-.82-.046-1.22-.046-10 0-18.08 9.214-18.08 20.566 0 6.871 2.96 12.968 7.52 16.699-9.42-.706-16.86-9.624-16.86-20.521-.04-11.375 8.06-20.589 18.06-20.589z" clip-rule="evenodd" />
            <path fill="#847D91" fill-rule="evenodd" d="M320.74 197.971l11.18 3.412c1.8.546 2.86 2.662 2.38 4.687l-1.18 4.982c-.48 2.047-2.34 3.253-4.12 2.707l-11.18-3.412c-1.8-.546-2.86-2.662-2.38-4.687l1.18-4.982c.48-2.048 2.34-3.253 4.12-2.707z" clip-rule="evenodd" />
            <path fill="#847D91" fill-rule="evenodd" d="M316.18 210.46c-.4 1.707-1.94 2.708-3.44 2.253-1.5-.455-2.38-2.207-1.98-3.913l.84-3.572c.28-1.183.94-2.116 1.8-2.685h.02c.86-.568 1.9-.75 2.94-.455l3.14.956c1.5.455 2.38 2.207 1.98 3.913-.4 1.706-1.94 2.707-3.44 2.252l-1.46-.455-.4 1.706zM335.8 216.444c-.4 1.706-1.94 2.707-3.44 2.252-1.5-.455-2.38-2.207-1.98-3.913l.4-1.661-1.46-.455c-1.5-.455-2.38-2.207-1.98-3.913.4-1.706 1.94-2.707 3.44-2.252l3.14.955c1.02.319 1.84 1.07 2.34 2.048h.02c.5.978.66 2.184.38 3.344l-.86 3.595zM322.8 195.013c.64.182 1.02.933.84 1.661l-.7 2.98c-.16.728-.82 1.16-1.46.956-.64-.182-1.02-.933-.84-1.661l.7-2.98c.16-.728.82-1.161 1.46-.956zM331.44 197.629c.64.182 1.02.933.84 1.661l-.7 2.98c-.16.728-.82 1.161-1.46.956-.64-.182-1.02-.933-.84-1.661l.7-2.98c.16-.705.82-1.138 1.46-.956z" clip-rule="evenodd" />
            <path fill="#fff" d="M322.586 204.039c.166-.703-.201-1.427-.82-1.616-.619-.188-1.255.23-1.421.933-.166.704.202 1.428.82 1.616.619.189 1.255-.229 1.421-.933zM329.901 206.248c.166-.704-.202-1.427-.82-1.616-.619-.188-1.255.229-1.421.933-.166.704.201 1.428.82 1.616.619.189 1.255-.229 1.421-.933z" />
            <path fill="#847D91" fill-rule="evenodd" d="M309.74 219.902l.44-1.843c.06-.273-.14-.592-.42-.683l-1.52-.455c-.6-.182-.92.842-.24 1.07l1.14.341-.26 1.069c-.34.159-.78.182-1.24.046-1-.296-1.56-1.32-1.26-2.594.28-1.228 1.38-1.797 2.3-1.501.4.113.74.477.94.864.34.592 1.2.023.86-.637-.34-.682-.96-1.115-1.56-1.297-1.6-.5-3.12.501-3.54 2.253-.48 2.07.4 3.458 2 3.935.68.205 1.38.182 2.04-.159.2-.114.3-.25.32-.409zm1.48 1.342c-.2.25-.48.227-.74.091-.2-.228-.28-.592-.04-.91l3.34-4.186c.32-.387.86-.25.94.296l1 5.528c.16.773-.9 1.024-1.02.273l-.16-.865-2.82-.864-.5.637zm1.26-1.661l1.8.546-.36-2.411-1.44 1.865zm6.34 2.184c.16.455.5.569.86.273l1.7-1.433-.76 3.208c-.08.386.08.659.34.75.24.069.5-.068.6-.455l1.14-4.891c.14-.591-.44-.933-.78-.637l-2.36 2.139-1.08-3.094c-.1-.205-.18-.387-.4-.455-.12-.046-.5 0-.6.455l-1.14 4.891c-.08.387.08.66.32.728.28.091.6-.046.68-.432l.76-3.208.72 2.161zm7.02 4.254l-2.86-.864a.564.564 0 01-.34-.683l1.16-4.914c.08-.318.34-.477.6-.386l2.74.841c.7.205.42 1.343-.26 1.138l-2.2-.66-.3 1.297 1.92.591c.68.205.42 1.343-.26 1.138l-1.92-.592-.3 1.297 2.32.705c.66.16.44 1.32-.3 1.092zm2.86-1.41l1.2.364.7 2.229c.3.797 1.24.41 1-.386l-.68-1.707c1.78-.25 2.08-3.321.16-3.913l-2.02-.614c-.26-.068-.52.091-.58.387l-1.16 4.914c-.18.773.84 1.046 1.02.296l.36-1.57zm.66-2.821l1.48.455c1.06.318.56 2.116-.42 1.82l-1.48-.455.42-1.82zm6.32 5.392c.2-1.32-3.14-1.502-2.34-3.891.58-1.638 2.88-1.251 3.72-.022.4.637-.32 1.228-.68.705-.46-.569-1.7-1.16-2.08-.319-.54 1.365 2.96 1.547 2.38 3.845-.58 2.184-3.38 1.388-4.2.068a.723.723 0 01.1-.887c.26-.159.5-.182.7.137.48.705 2 1.547 2.4.364zM364.24 287.196c.42.045.86.091 1.3.091 3.18 0 6.06-1.411 8.08-4.072 1.92-2.548 3.1-6.279 3.1-11.102v-73.301c0-1.137.8-2.047 1.8-2.047s1.8.91 1.8 2.047v73.301c0 5.846-1.52 10.487-3.98 13.763-2.72 3.618-6.58 5.529-10.8 5.529-.44 0-.88-.023-1.3-.069v-4.14z" clip-rule="evenodd" />
            <path fill="#918B9C" fill-rule="evenodd" d="M260.1 235.827c2.88 0 5.24-2.685 5.24-5.961 0-3.276-2.36-5.96-5.24-5.96-2.88 0-5.24 2.684-5.24 5.96 0 3.299 2.36 5.961 5.24 5.961zM377.6 215.534c2.88 0 5.24-2.685 5.24-5.961 0-3.276-2.36-5.96-5.24-5.96-2.88 0-5.24 2.684-5.24 5.96.02 3.276 2.36 5.961 5.24 5.961z" clip-rule="evenodd" />
            <path fill="#E6E6E6" fill-rule="evenodd" d="M342.94 160.752c17.32 5.278 27.7 25.707 23.06 45.409l-8.42 35.717c-4.08 17.313-18.46 28.529-33.64 27.391 7.04-4.777 12.52-12.535 14.78-22.204l8.42-35.717c4.64-19.702-5.74-40.131-23.06-45.409a29.24 29.24 0 00-6.3-1.183c7.32-4.96 16.32-6.712 25.16-4.004z" clip-rule="evenodd" />
            <path fill="#D99A86" fill-rule="evenodd" d="M328.72 109.655c10.26 0 18.66 9.555 18.66 21.226v30.69c0 11.67-8.4 21.225-18.66 21.225s-18.66-9.555-18.66-21.225v-30.69c0-11.671 8.4-21.226 18.66-21.226z" clip-rule="evenodd" />
            <g fill-rule="evenodd" clip-rule="evenodd">
                <path fill="#E6E6E6" d="M352.98 157.589c4.32 2.844 5.8 9.168 3.32 14.082l-7.42 14.606c-2.5 4.914-8.06 6.597-12.38 3.776-4.32-2.843-5.8-9.168-3.32-14.082l7.42-14.605c2.5-4.914 8.06-6.62 12.38-3.777z" />
                <path fill="#fff" d="M308.12 157.589c-4.32 2.844-5.8 9.168-3.32 14.082l7.42 14.606c2.5 4.914 8.06 6.597 12.38 3.776 4.32-2.843 5.8-9.168 3.32-14.082l-7.42-14.605c-2.5-4.914-8.08-6.62-12.38-3.777z" />
            </g>
            <path fill="#FBBEAC" fill-rule="evenodd" d="M317.06 83.356c16.68 0 30.32 15.516 30.32 34.489v15.675c0 18.973-13.64 34.489-30.32 34.489s-30.32-15.516-30.32-34.489v-15.675c0-18.974 13.64-34.489 30.32-34.489z" clip-rule="evenodd" />
            <path fill="#D99A86" fill-rule="evenodd" d="M317.06 83.356c16.68 0 30.32 15.516 30.32 34.489v15.675c0 14.491-7.96 26.958-19.14 32.054 2.46-4.982 3.86-10.692 3.86-16.789v-26.754c0-18.655-13.2-33.966-29.5-34.489 4.32-2.662 9.24-4.186 14.46-4.186z" clip-rule="evenodd" />
            <path fill="#3CD3C1" fill-rule="evenodd" d="M317.06 83.356c7.66 0 14.66 3.276 20.02 8.622a26.83 26.83 0 00-10.84-2.297c-16.68 0-30.32 15.515-30.32 34.488v15.675c0 10.26 4 19.52 10.32 25.867-11.36-4.982-19.48-17.563-19.48-32.191v-15.675c-.02-18.974 13.62-34.489 30.3-34.489z" clip-rule="evenodd" />
            <path fill="#473E37" fill-rule="evenodd" d="M294.32 78.26h32.86c6.94 0 12.64 6.461 12.64 14.378 0 7.894-5.68 14.378-12.64 14.378h-32.86c-6.94 0-12.64-6.461-12.64-14.378s5.7-14.378 12.64-14.378z" clip-rule="evenodd" />
            <path fill="#473E37" d="M338.54 109.883c6.285 0 11.38-5.796 11.38-12.945 0-7.15-5.095-12.945-11.38-12.945-6.285 0-11.38 5.796-11.38 12.945s5.095 12.945 11.38 12.945z" />
            <path fill="#473E37" fill-rule="evenodd" d="M355.48 106.993v15.174c0 7.895-5.68 14.378-12.64 14.378-6.94 0-12.64-6.461-12.64-14.378v-15.174c0-7.894 5.68-14.378 12.64-14.378 6.96.023 12.64 6.484 12.64 14.378z" clip-rule="evenodd" />
            <path fill="#918B9C" fill-rule="evenodd" d="M303.64 91.114c-2.54 2.002-6.04 1.274-7.78-1.616-1.76-2.889-1.12-6.87 1.42-8.85a35.333 35.333 0 0110.18-5.528c3.58-1.205 7.4-1.888 11.36-1.888 9.18 0 17.56 3.526 23.7 9.237 6.46 6.006 10.48 14.378 10.48 23.66v26.503c0 3.527-2.52 6.393-5.62 6.393s-5.62-2.866-5.62-6.393v-26.503c0-5.278-2.42-10.17-6.3-13.787-4.22-3.913-10.1-6.347-16.64-6.347-2.88 0-5.64.478-8.16 1.32-2.62.91-4.98 2.206-7.02 3.799z" clip-rule="evenodd" />
            <path fill="#fff" fill-rule="evenodd" d="M318.36 150.127c0 4.755-3.4 8.622-7.58 8.622s-7.58-3.867-7.58-8.622h15.16z" clip-rule="evenodd" />
            <path fill="#D2CAE2" fill-rule="evenodd" d="M303.64 91.114c-2.54 2.002-6.04 1.274-7.78-1.616-1.76-2.889-1.12-6.87 1.42-8.85a35.333 35.333 0 0110.18-5.528c3.58-1.205 7.4-1.888 11.36-1.888 3.4 0 6.74.5 9.94 1.456 3.34.978 6.44 2.412 9.18 4.209 2.68 1.752 3.62 5.642 2.08 8.713-1.54 3.049-4.96 4.118-7.66 2.366-1.98-1.274-4.12-2.298-6.38-2.957-2.2-.66-4.62-1.001-7.18-1.001-2.88 0-5.64.477-8.16 1.32-2.6.886-4.96 2.183-7 3.776z" clip-rule="evenodd" />
            <path fill="#4D433C" d="M297.92 106.993c9.3 0 16.84-8.576 16.84-19.155 0-10.58-7.54-19.156-16.84-19.156s-16.84 8.576-16.84 19.156c0 10.579 7.54 19.155 16.84 19.155z" />
            <path fill="#3CD3C1" fill-rule="evenodd" d="M293.2 106.993c-10.46 0-18.96-9.646-18.96-21.567 0-11.92 8.48-21.567 18.96-21.567 1.72 0 3.38.25 4.96.751-8.06 2.48-14 10.852-14 20.816 0 9.965 5.94 18.337 14 20.817-1.58.5-3.26.75-4.96.75z" clip-rule="evenodd" />
            <path fill="#544A43" d="M293.06 99.6c6.219 0 11.26-5.735 11.26-12.809 0-7.073-5.041-12.808-11.26-12.808-6.219 0-11.26 5.734-11.26 12.808S286.841 99.6 293.06 99.6z" />
            <path fill="#918B9C" fill-rule="evenodd" d="M334.16 109.883h21.08c1.24 0 2.26 1.16 2.26 2.57v9.237c0 1.41-1.02 2.571-2.26 2.571h-21.08c-1.24 0-2.26-1.161-2.26-2.571v-9.237c0-1.433 1.02-2.57 2.26-2.57z" clip-rule="evenodd" />
            <path fill="#D99A86" d="M342.34 147.238c6.981 0 12.64-6.437 12.64-14.378s-5.659-14.378-12.64-14.378c-6.981 0-12.64 6.437-12.64 14.378s5.659 14.378 12.64 14.378z" />
            <path fill="#D2CAE2" fill-rule="evenodd" d="M289.68 98.371h40.12c7.18 0 13.04 6.666 13.04 14.833v7.689c0 8.168-5.86 14.834-13.04 14.834h-40.12c-7.18 0-13.04-6.666-13.04-14.834v-7.689c0-8.145 5.86-14.833 13.04-14.833z" clip-rule="evenodd" />
            <path fill="#79D1D1" fill-rule="evenodd" d="M340.8 105.264a15.448 15.448 0 011.7 4.619h-65.54c.34-1.661.92-3.208 1.7-4.619h62.14z" clip-rule="evenodd" />
            <path fill="#F4EFF5" fill-rule="evenodd" d="M279.56 98.371h31.2c7.18 0 13.04 6.666 13.04 14.833v7.689c0 8.168-5.86 14.834-13.04 14.834h-31.2c-7.18 0-13.04-6.666-13.04-14.834v-7.689c0-8.145 5.88-14.833 13.04-14.833z" clip-rule="evenodd" />
            <path fill="#E0E0E0" fill-rule="evenodd" d="M314.44 98.985c5.4 1.82 9.36 7.53 9.36 14.242v7.689c0 6.711-3.96 12.422-9.36 14.242-2.56-3.504-4.12-7.986-4.12-12.854v-10.442c0-4.892 1.56-9.396 4.12-12.877z" clip-rule="evenodd" />
            <path fill="#fff" fill-rule="evenodd" d="M288.16 98.371h11.98l-5.9 37.378h-11.98l5.9-37.378zm13.62 0l-5.9 37.378h6.6l5.9-37.378h-6.6z" clip-rule="evenodd" />
            <path fill="#3CD3C1" fill-rule="evenodd" d="M291.62 117.322h7.1c1.12 0 2.04 1.046 2.04 2.32 0 1.274-.92 2.321-2.04 2.321h-7.1c-1.12 0-2.04-1.047-2.04-2.321 0-1.274.92-2.32 2.04-2.32z" clip-rule="evenodd" />
            <path fill="#918B9C" fill-rule="evenodd" d="M352.74 110.747h2.16c5.64 0 10.26 5.255 10.26 11.671v11.989c0 6.415-4.62 11.671-10.26 11.671h-2.16c-4.46 0-8.1-4.141-8.1-9.214v-16.903c.02-5.074 3.66-9.214 8.1-9.214z" clip-rule="evenodd" />
            <path fill="#D2CAE2" fill-rule="evenodd" d="M347.34 110.747h2.16c.9 0 1.78.136 2.62.387-3.34 1.137-5.78 4.663-5.78 8.827v16.903c0 4.14 2.44 7.689 5.78 8.827-.84.25-1.72.387-2.62.387h-2.16c-4.46 0-8.1-4.141-8.1-9.214v-16.903c0-5.074 3.66-9.214 8.1-9.214z" clip-rule="evenodd" />
            <path fill="#3CD3C1" fill-rule="evenodd" d="M321.76 105.264a15.448 15.448 0 011.7 4.619h-56.62c.34-1.661.92-3.208 1.7-4.619h53.22z" clip-rule="evenodd" />
            <path fill="#544A43" fill-rule="evenodd" d="M292.32 82.082h12.04c2.86 0 5.2 2.662 5.2 5.915s-2.34 5.915-5.2 5.915h-12.04c-2.86 0-5.2-2.662-5.2-5.915s2.34-5.915 5.2-5.915z" clip-rule="evenodd" />
            <path fill="#A19AAD" fill-rule="evenodd" d="M357.72 115.115c2.78 0 5.06 2.593 5.06 5.756v7.848c0 3.163-2.28 5.756-5.06 5.756s-5.06-2.593-5.06-5.756v-7.848c0-3.163 2.28-5.756 5.06-5.756z" clip-rule="evenodd" />
            <path fill="#3CD3C1" fill-rule="evenodd" d="M353.24 135.59h4.94c1.04 0 1.9.978 1.9 2.161s-.86 2.161-1.9 2.161h-4.94c-1.04 0-1.9-.978-1.9-2.161s.86-2.161 1.9-2.161z" clip-rule="evenodd" />
            <path fill="#E0E0E0" fill-rule="evenodd" d="M275.9 98.985c-5.4 1.82-9.36 7.53-9.36 14.242v7.689c0 6.711 3.96 12.422 9.36 14.242 2.56-3.504 4.12-7.986 4.12-12.854v-10.442c-.02-4.892-1.56-9.396-4.12-12.877z" clip-rule="evenodd" />
            <path fill="#79D1D1" fill-rule="evenodd" d="M279.56 98.371h8.68c-7.18 0-13.04 6.666-13.04 14.833v7.689c0 8.168 5.86 14.834 13.04 14.834h-8.68c-7.18 0-13.04-6.666-13.04-14.834v-7.689c0-8.145 5.88-14.833 13.04-14.833z" clip-rule="evenodd" />
            <path fill="#3CD3C1" fill-rule="evenodd" d="M278.4 103.512c-1.98 2.617-3.2 6.006-3.2 9.692v7.689c0 3.709 1.2 7.098 3.2 9.692a20.085 20.085 0 01-2.52 4.527 9.458 9.458 0 01-1.24-.5c-1.92-.888-3.62-2.298-4.98-4.095-2.04-2.753-3.14-6.029-3.14-9.646v-7.69c0-4.868 2.14-9.441 5.62-12.194 1.06-.887 2.5-1.638 3.74-2.047a21.447 21.447 0 012.52 4.572z" clip-rule="evenodd" />
            <path fill="#847D91" fill-rule="evenodd" d="M358.1 171.671c0 1.138-.8 2.048-1.8 2.048s-1.8-.91-1.8-2.048v-26.139c0-1.138.8-2.048 1.8-2.048s1.8.91 1.8 2.048v26.139z" clip-rule="evenodd" />
        </g>
        <g fill-rule="evenodd" clip-rule="evenodd">
            <path fill="#3CD3C1" d="M372.3 341.068c.6 0 1.1.546 1.12 1.228 0 .683-.48 1.252-1.08 1.274-9.46.205-19.08.364-28.8.455-10 .114-19.8.16-29.28.16-62.48 0-119.06-2.071-160.04-5.415-41.58-3.39-67.28-8.417-67.28-14.31 0-3.412 7.6-6.461 21.78-8.986 13.62-2.411 33.54-4.573 58.8-6.324.6-.046 1.12.477 1.16 1.183.04.682-.42 1.274-1.04 1.319-25.22 1.752-45.06 3.913-58.6 6.302-12.96 2.298-19.9 4.504-19.9 6.506 0 4.323 24.92 8.509 65.22 11.808 40.9 3.344 97.42 5.392 159.88 5.392 10.1 0 19.88-.046 29.28-.16 9.68-.068 19.3-.227 28.78-.432z" />
            <path fill="#fff" d="M398.72 308.626c-.6-.022-1.08-.591-1.08-1.296.02-.683.52-1.229 1.14-1.206 42.84 1.41 78.3 3.799 103.04 6.802 25.36 3.071 39.72 7.053 39.72 11.58 0 4.186-12.16 7.917-34.02 10.852-21.22 2.843-51.88 5.209-89.54 6.802-.6.023-1.12-.523-1.14-1.206-.02-.682.46-1.274 1.06-1.297 37.56-1.569 68.16-3.958 89.36-6.802 20.58-2.753 32.06-5.642 32.06-8.349 0-3.003-13.66-6.165-37.76-9.077-24.68-3.003-60.06-5.415-102.84-6.803z" />
        </g>
        <g fill-rule="evenodd" clip-rule="evenodd">
            <path fill="#3CD3C1" d="M425.08 318.841c7.52 1.001 12.3 2.526 12.3 4.186 0 3.049-15.7 5.506-35.06 5.506-19.36 0-35.06-2.457-35.06-5.506 0-1.683 4.78-3.185 12.3-4.186-1.14.455-1.78.933-1.78 1.434 0 2.138 10.98 3.867 24.54 3.867 13.56 0 24.54-1.729 24.54-3.867-.02-.501-.64-1.001-1.78-1.434z" />
            <path fill="#fff" d="M402.3 313.017c10.98 0 19.92-1.41 19.92-3.139 0-1.729-8.94-3.14-19.92-3.14-10.98 0-19.92 1.411-19.92 3.14s8.96 3.139 19.92 3.139z" />
            <path fill="#3CD3C1" d="M402.3 298.707c5.12 0 9.28-4.732 9.28-10.556 0-5.824-4.16-10.556-9.28-10.556-5.12 0-9.28 4.732-9.28 10.556 0 5.824 4.18 10.556 9.28 10.556z" />
        </g>
        <path fill="#fff" fill-rule="evenodd" d="M479.86 145.168h3.34c.72 0 1.2.682 1.04 1.501l-.54 3.026h2.66c.72 0 1.2.682 1.04 1.501l-.68 3.8c-.14.819-.86 1.501-1.58 1.501h-2.66l-.54 3.026c-.14.819-.86 1.501-1.58 1.501H477c-.72 0-1.2-.682-1.04-1.501l.54-3.026h-2.66c-.72 0-1.2-.682-1.04-1.501l.68-3.8c.14-.819.86-1.501 1.58-1.501h2.66l.54-3.026c.16-.842.88-1.501 1.6-1.501zM138.02 270.566h-3.34c-.72 0-1.2.682-1.04 1.501l.54 3.026h-2.66c-.72 0-1.2.682-1.04 1.501l.68 3.8c.14.819.86 1.501 1.58 1.501h2.66l.54 3.026c.14.819.86 1.501 1.58 1.501h3.34c.72 0 1.2-.682 1.04-1.501l-.54-3.026h2.66c.72 0 1.2-.682 1.04-1.501l-.68-3.8c-.14-.819-.86-1.501-1.58-1.501h-2.66l-.54-3.026c-.14-.819-.86-1.501-1.58-1.501z" clip-rule="evenodd" />
        <g fill-rule="evenodd" clip-rule="evenodd">
            <path fill="#3CD3C1" d="M92.4 73.755h132.56c.88 0 1.72.41 2.34 1.047.64.66 1.08 1.547 1.18 2.548l9.14 94.435c.02.137.02.273.02.41a3.8 3.8 0 01-.74 2.275c-.48.591-1.12 1.001-1.9 1.092-.12.023-.24.023-.34.023H102.1c-.88 0-1.72-.41-2.36-1.047a4.267 4.267 0 01-1.18-2.548l-9.14-94.458c-.02-.136-.02-.273-.02-.41 0-.864.28-1.66.74-2.275a2.809 2.809 0 011.9-1.091h.36zm132.56 1.684H92.22c-.38.046-.72.25-.96.546-.24.296-.38.705-.38 1.16v.228l9.14 94.435c.06.569.32 1.115.7 1.502.38.386.86.614 1.36.614h132.74c.38-.046.72-.25.96-.546.24-.296.38-.705.38-1.16v-.228l-9.14-94.435a2.562 2.562 0 00-.7-1.502c-.38-.386-.86-.614-1.36-.614z" />
            <path fill="#3CD3C1" d="M108.42 88.748h25.24c1.88 0 3.58 1.752 3.78 3.867.2 2.139-1.16 3.868-3.04 3.868h-25.22c-1.88 0-3.58-1.752-3.78-3.868-.22-2.115 1.14-3.867 3.02-3.867zM143.34 88.748h2.92c1.88 0 3.58 1.752 3.78 3.867.2 2.139-1.16 3.868-3.04 3.868h-2.92c-1.88 0-3.58-1.752-3.78-3.868-.2-2.115 1.16-3.867 3.04-3.867zM111.26 108.199h101.5c1.36 0 2.66.637 3.66 1.638a6.765 6.765 0 011.84 3.981l3.9 40.336c.02.227.04.432.04.614 0 1.342-.42 2.548-1.14 3.458-.72.91-1.72 1.524-2.9 1.684-.18.022-.36.045-.54.045H116.1c-1.36 0-2.66-.637-3.66-1.638a6.648 6.648 0 01-1.84-3.981L106.7 114c-.02-.227-.04-.432-.04-.614 0-1.342.42-2.548 1.14-3.458.72-.91 1.72-1.524 2.9-1.684.2-.045.38-.045.56-.045zm101.5 1.661h-101.5c-.14 0-.26 0-.38.022-.8.091-1.48.524-1.96 1.138-.48.614-.76 1.433-.76 2.366 0 .159 0 .296.02.432l3.9 40.336a4.77 4.77 0 001.36 2.912c.74.751 1.68 1.206 2.68 1.206h101.5c.14 0 .26 0 .38-.023.8-.091 1.48-.523 1.96-1.138.48-.614.76-1.433.76-2.366 0-.159 0-.295-.02-.432l-3.92-40.336a4.77 4.77 0 00-1.36-2.912c-.72-.728-1.66-1.205-2.66-1.205z" />
            <path fill="#fff" d="M177.86 159.113H116.1c-1.18 0-2.3-.546-3.16-1.433l28.26-36.127 36.66 37.56z" />
            <path fill="#fff" d="M171.92 130.949l27.5 28.164h-49.54l22.04-28.164zM121.3 116.98c2.62 0 5 2.435 5.28 5.415.28 2.98-1.6 5.414-4.24 5.414-2.62 0-5-2.434-5.28-5.414-.28-3.003 1.62-5.415 4.24-5.415zM199.64 121.963c1.46.773 2.6 2.389 2.78 4.254.26 2.594-1.42 4.732-3.7 4.732h-6.9c-2.28 0-4.36-2.116-4.62-4.732-.18-1.865.62-3.503 1.94-4.254-.2-2.571 1.44-4.641 3.7-4.641h2.18c2.28 0 4.34 2.07 4.62 4.641zM211.64 88.748H186.4c-1.88 0-3.58 1.752-3.78 3.867-.2 2.139 1.16 3.868 3.04 3.868h25.24c1.88 0 3.58-1.752 3.78-3.868.2-2.115-1.16-3.867-3.04-3.867zM176.72 88.748h-2.92c-1.88 0-3.58 1.752-3.78 3.867-.2 2.139 1.16 3.868 3.04 3.868h2.92c1.88 0 3.58-1.752 3.78-3.868.2-2.115-1.16-3.867-3.04-3.867z" />
        </g>
        <g fill-rule="evenodd" clip-rule="evenodd">
            <path fill="#3CD3C1" d="M376.36 173.924H490.6c.2 0 .38.022.56.068.58.136 1.06.478 1.4.978.34.478.52 1.092.52 1.775 0 .204-.02.432-.06.682l-15.04 81.4c-.16.864-.62 1.66-1.2 2.206-.6.569-1.36.91-2.14.91H360.4c-.2 0-.38-.022-.56-.068a2.374 2.374 0 01-1.4-.955c-.34-.478-.52-1.092-.52-1.775 0-.205.02-.432.06-.682l15.04-81.4c.16-.864.62-1.661 1.2-2.207.6-.568 1.36-.932 2.14-.932zm114.24 1.683H376.36c-.42 0-.84.205-1.2.523-.36.342-.62.774-.7 1.274l-15.04 81.4c-.02.114-.04.227-.04.341 0 .296.08.546.2.728.12.182.32.319.54.364.08.023.16.023.26.023h114.24c.42 0 .84-.205 1.2-.523.36-.342.62-.774.7-1.274l15.04-81.4c.02-.114.02-.227.02-.341 0-.296-.08-.546-.2-.728a.866.866 0 00-.54-.364c-.04-.023-.14-.023-.24-.023z" />
            <path fill="#3CD3C1" d="M448.28 224.679l-4.74 25.639c-12.44 0-20.42-11.466-17.8-25.639 2.62-14.151 14.82-25.639 27.26-25.639 12.44 0 20.42 11.466 17.8 25.639h-22.52z" />
            <path fill="#fff" d="M451.34 229.092h14.78c-1.72 9.282-9.72 16.813-17.9 16.813l3.12-16.813zM386.52 199.404h16.6c1.3 0 2.14 1.205 1.88 2.707-.28 1.479-1.56 2.707-2.88 2.707h-16.6c-1.3 0-2.14-1.206-1.88-2.707.28-1.479 1.56-2.707 2.88-2.707zM384.52 210.21h16.6c1.3 0 2.14 1.206 1.88 2.707-.28 1.479-1.56 2.707-2.88 2.707h-16.6c-1.3 0-2.14-1.205-1.88-2.707.28-1.501 1.58-2.707 2.88-2.707z" />
            <path fill="#3CD3C1" d="M382.52 220.993h16.6c1.3 0 2.14 1.206 1.88 2.708-.28 1.478-1.56 2.707-2.88 2.707h-16.6c-1.3 0-2.14-1.206-1.88-2.707.28-1.502 1.58-2.708 2.88-2.708zM380.54 231.777h16.6c1.3 0 2.14 1.206 1.88 2.707-.28 1.479-1.56 2.707-2.88 2.707h-16.6c-1.3 0-2.14-1.205-1.88-2.707.28-1.479 1.56-2.707 2.88-2.707z" />
            <path fill="#fff" d="M378.54 242.583h16.6c1.3 0 2.14 1.206 1.88 2.707-.28 1.479-1.56 2.708-2.88 2.708h-16.6c-1.3 0-2.14-1.206-1.88-2.708.28-1.501 1.58-2.707 2.88-2.707z" />
            <path fill="#3CD3C1" d="M412.6 199.404h5.92c1.3 0 2.14 1.205 1.88 2.707-.28 1.479-1.56 2.707-2.88 2.707h-5.92c-1.3 0-2.14-1.206-1.88-2.707.28-1.479 1.58-2.707 2.88-2.707zM410.6 210.21h5.92c1.3 0 2.14 1.206 1.88 2.707-.28 1.479-1.56 2.707-2.88 2.707h-5.92c-1.3 0-2.14-1.205-1.88-2.707.3-1.501 1.58-2.707 2.88-2.707z" />
            <path fill="#fff" d="M408.62 220.993h5.92c1.3 0 2.14 1.206 1.88 2.708-.28 1.478-1.56 2.707-2.88 2.707h-5.92c-1.3 0-2.14-1.206-1.88-2.707.28-1.502 1.56-2.708 2.88-2.708zM406.62 231.777h5.92c1.3 0 2.14 1.206 1.88 2.707-.28 1.479-1.56 2.707-2.88 2.707h-5.92c-1.3 0-2.14-1.205-1.88-2.707.28-1.479 1.58-2.707 2.88-2.707zM404.62 242.583h5.92c1.3 0 2.14 1.206 1.88 2.707-.28 1.479-1.56 2.708-2.88 2.708h-5.92c-1.3 0-2.14-1.206-1.88-2.708.3-1.501 1.58-2.707 2.88-2.707zM371.42 190.554c-.4 0-.74-.364-.74-.842 0-.455.32-.842.74-.842H490c.4 0 .74.364.74.842 0 .455-.32.842-.74.842H371.42z" />
        </g>
        <path fill="#5B6980" d="M160.14 226.34h-27.22v8.03h27.22v-8.03z" />
    </g>
    <defs>
        <clipPath id="clip0">
            <path fill="#fff" d="M0 0h600v455H0z" />
        </clipPath>
    </defs>
</svg>
